<?xml version="1.0" encoding="UTF-8"?>
<svg xmlns="http://www.w3.org/2000/svg" xmlns:xlink="http://www.w3.org/1999/xlink" width="24px" height="px" viewBox="0 0 24 24" version="1.1">
<g id="surface1">
<path style=" stroke:none;fill-rule:nonzero;fill:rgb(100%,100%,100%);fill-opacity:1;" d="M 3.601562 0 L 20.398438 0 C 22.386719 0 24 1.613281 24 3.601562 L 24 20.398438 C 24 22.386719 22.386719 24 20.398438 24 L 3.601562 24 C 1.613281 24 0 22.386719 0 20.398438 L 0 3.601562 C 0 1.613281 1.613281 0 3.601562 0 Z M 3.601562 0 "/>
<path style="fill-rule:nonzero;fill:rgb(0%,0%,0%);fill-opacity:1;stroke-width:38;stroke-linecap:butt;stroke-linejoin:miter;stroke:rgb(2.352941%,42.745098%,64.705882%);stroke-opacity:1;stroke-miterlimit:4;" d="M 296 226 L 338 226 M 246 226 L 288 226 M 197 226 L 239 226 M 148 226 L 189 226 M 98 226 L 140 226 M 148 180 L 189 180 M 197 180 L 239 180 M 246 180 L 288 180 M 246 134 L 288 134 " transform="matrix(0.046875,0,0,0.046875,0,0)"/>
<path style=" stroke:none;fill-rule:nonzero;fill:rgb(2.352941%,42.745098%,64.705882%);fill-opacity:1;" d="M 22.125 10.6875 C 22.125 10.6875 21.28125 9.890625 19.546875 10.171875 C 19.359375 8.8125 17.90625 8.015625 17.90625 8.015625 C 17.90625 8.015625 16.546875 9.65625 17.53125 11.484375 C 17.25 11.625 16.78125 11.8125 16.078125 11.8125 L 3.1875 11.8125 C 2.953125 12.703125 2.953125 18.609375 9.421875 18.609375 C 14.0625 18.609375 17.53125 16.453125 19.171875 12.515625 C 21.609375 12.703125 22.125 10.6875 22.125 10.6875 "/>
</g>
</svg>
