<?xml version="1.0" encoding="UTF-8"?>
<svg xmlns="http://www.w3.org/2000/svg" xmlns:xlink="http://www.w3.org/1999/xlink" width="24px" height="px" viewBox="0 0 23 23" version="1.1">
<g id="surface1">
<path style=" stroke:none;fill-rule:nonzero;fill:rgb(100%,50.196078%,50.196078%);fill-opacity:1;" d="M 10.820312 8.535156 L 10.820312 10.714844 L 5.765625 5.488281 L 7.445312 3.753906 L 9.996094 6.390625 C 9.925781 6.582031 9.894531 6.78125 9.894531 6.984375 C 9.890625 7.644531 10.25 8.246094 10.820312 8.535156 Z M 12.371094 8.847656 L 13.160156 9.660156 L 12.371094 10.476562 Z M 17.183594 5.503906 L 14.144531 8.640625 L 13.121094 7.589844 C 13.214844 7.328125 13.246094 7.050781 13.210938 6.777344 C 13.105469 5.949219 12.445312 5.316406 11.636719 5.269531 C 11.414062 5.257812 11.191406 5.292969 10.980469 5.375 L 8.429688 2.726562 L 10.59375 0.5 C 10.824219 0.257812 11.140625 0.125 11.46875 0.125 C 11.796875 0.125 12.109375 0.257812 12.34375 0.5 Z M 17.183594 5.503906 "/>
<path style=" stroke:none;fill-rule:nonzero;fill:rgb(50.196078%,70.196078%,100%);fill-opacity:1;" d="M 9.816406 12.714844 L 5.222656 17.464844 L 0.660156 12.796875 C 0.125 12.21875 0.132812 11.304688 0.675781 10.738281 L 5.378906 5.878906 L 9.816406 10.480469 C 10.414062 11.097656 10.414062 12.097656 9.816406 12.714844 Z M 9.816406 12.714844 "/>
<path style=" stroke:none;fill-rule:nonzero;fill:rgb(100%,90.196078%,50.196078%);fill-opacity:1;" d="M 12.382812 13.28125 L 12.382812 15.273438 C 12.953125 15.628906 13.253906 16.3125 13.128906 16.992188 C 13.015625 17.652344 12.519531 18.171875 11.882812 18.296875 C 11.101562 18.472656 10.316406 18.023438 10.046875 17.246094 C 9.777344 16.464844 10.109375 15.601562 10.820312 15.226562 L 10.820312 13.023438 C 10.816406 12.957031 10.777344 12.902344 10.71875 12.878906 C 10.664062 12.851562 10.597656 12.863281 10.546875 12.902344 L 5.734375 17.878906 L 10.6875 23 C 11.167969 23.496094 11.949219 23.496094 12.429688 23 L 17.101562 18.175781 Z M 12.382812 13.28125 "/>
<path style=" stroke:none;fill-rule:nonzero;fill:rgb(55.294118%,82.745098%,37.254902%);fill-opacity:1;" d="M 22.214844 13.046875 L 17.757812 17.65625 L 12.957031 12.695312 C 12.394531 12.117188 12.394531 11.175781 12.957031 10.59375 L 13.507812 10.019531 L 14.734375 11.28125 C 14.460938 12.039062 14.738281 12.890625 15.398438 13.328125 C 16.058594 13.761719 16.921875 13.664062 17.472656 13.09375 C 18.027344 12.523438 18.121094 11.628906 17.699219 10.949219 C 17.277344 10.265625 16.453125 9.980469 15.71875 10.261719 L 14.503906 9.003906 L 17.617188 5.785156 L 22.214844 10.539062 C 22.535156 10.871094 22.71875 11.324219 22.71875 11.792969 C 22.71875 12.265625 22.535156 12.714844 22.214844 13.046875 Z M 22.214844 13.046875 "/>
</g>
</svg>
