<?xml version="1.0" encoding="UTF-8"?>
<svg xmlns="http://www.w3.org/2000/svg" xmlns:xlink="http://www.w3.org/1999/xlink" width="24px" height="px" viewBox="0 0 24 24" version="1.1">
<g id="surface1">
<path style=" stroke:none;fill-rule:nonzero;fill:rgb(99.215686%,72.54902%,25.098039%);fill-opacity:1;" d="M 21.894531 1.875 L 16.707031 7.492188 C 16.65625 11.496094 15.316406 15.375 12.886719 18.558594 L 17.402344 19.675781 C 24.933594 12.660156 21.894531 1.875 21.894531 1.875 Z M 21.894531 1.875 "/>
<path style=" stroke:none;fill-rule:nonzero;fill:rgb(99.607843%,70.196078%,13.333333%);fill-opacity:1;" d="M 16.707031 7.492188 C 16.742188 6.40625 16.667969 5.316406 16.492188 4.242188 L 5.042969 16.644531 L 12.871094 18.585938 C 12.878906 18.574219 12.878906 18.566406 12.886719 18.558594 L 7.683594 17.269531 Z M 16.707031 7.492188 "/>
<path style=" stroke:none;fill-rule:nonzero;fill:rgb(97.647059%,50.980392%,0%);fill-opacity:1;" d="M 7.691406 17.269531 L 12.898438 18.558594 C 15.328125 15.375 16.664062 11.496094 16.714844 7.492188 Z M 7.691406 17.269531 "/>
<path style=" stroke:none;fill-rule:nonzero;fill:rgb(10.588235%,12.54902%,54.509804%);fill-opacity:1;" d="M 14.929688 19.847656 C 15.386719 19.847656 15.832031 19.875 16.265625 19.90625 L 1.5 16.308594 C 1.5 16.308594 4.246094 17.207031 7.566406 22.125 C 9.703125 20.574219 12.292969 19.773438 14.929688 19.847656 Z M 14.929688 19.847656 "/>
</g>
</svg>
