<?xml version="1.0" encoding="UTF-8"?>
<svg xmlns="http://www.w3.org/2000/svg" xmlns:xlink="http://www.w3.org/1999/xlink" width="24px" height="px" viewBox="0 0 24 23" version="1.1">
<g id="surface1">
<rect x="0" y="0" width="24" height="23" style="fill:rgb(94.117647%,85.882353%,30.980392%);fill-opacity:1;stroke:none;"/>
<path style=" stroke:none;fill-rule:nonzero;fill:rgb(19.607843%,20%,18.823529%);fill-opacity:1;" d="M 22.035156 17.515625 C 21.859375 16.464844 21.144531 15.585938 19.03125 14.761719 C 18.296875 14.4375 17.476562 14.207031 17.234375 13.671875 C 17.148438 13.363281 17.136719 13.1875 17.191406 13 C 17.347656 12.390625 18.105469 12.199219 18.710938 12.375 C 19.097656 12.5 19.464844 12.785156 19.6875 13.242188 C 20.722656 12.601562 20.71875 12.605469 21.441406 12.164062 C 21.179688 11.769531 21.035156 11.585938 20.863281 11.417969 C 20.242188 10.753906 19.390625 10.410156 18.035156 10.433594 C 17.800781 10.464844 17.5625 10.496094 17.328125 10.523438 C 16.648438 10.6875 16.003906 11.027344 15.625 11.484375 C 14.488281 12.71875 14.8125 14.882812 16.195312 15.773438 C 17.558594 16.75 19.558594 16.972656 19.8125 17.890625 C 20.0625 19.011719 18.953125 19.375 17.851562 19.246094 C 17.039062 19.085938 16.585938 18.6875 16.101562 17.96875 C 15.199219 18.46875 15.199219 18.46875 14.277344 18.976562 C 14.496094 19.4375 14.726562 19.644531 15.09375 20.042969 C 16.832031 21.730469 21.183594 21.648438 21.960938 19.089844 C 21.996094 19.003906 22.203125 18.417969 22.035156 17.515625 Z M 13.046875 10.570312 L 10.800781 10.570312 C 10.800781 12.429688 10.792969 14.273438 10.792969 16.132812 C 10.792969 17.316406 10.855469 18.398438 10.65625 18.730469 C 10.328125 19.386719 9.476562 19.304688 9.089844 19.179688 C 8.695312 18.992188 8.492188 18.726562 8.261719 18.355469 C 8.195312 18.246094 8.148438 18.164062 8.132812 18.15625 C 7.523438 18.515625 6.917969 18.871094 6.308594 19.230469 C 6.613281 19.824219 7.058594 20.34375 7.632812 20.679688 C 8.488281 21.171875 9.636719 21.324219 10.839844 21.058594 C 11.621094 20.839844 12.296875 20.386719 12.648438 19.699219 C 13.160156 18.796875 13.050781 17.703125 13.046875 16.492188 C 13.058594 14.519531 13.046875 12.550781 13.046875 10.570312 Z M 13.046875 10.570312 "/>
</g>
</svg>
