<?xml version="1.0" encoding="UTF-8"?>
<svg xmlns="http://www.w3.org/2000/svg" xmlns:xlink="http://www.w3.org/1999/xlink" width="24px" height="px" viewBox="0 0 24 23" version="1.1">
<g id="surface1">
<rect x="0" y="0" width="24" height="23" style="fill:rgb(100%,100%,100%);fill-opacity:1;stroke:none;"/>
<path style=" stroke:none;fill-rule:evenodd;fill:rgb(19.215686%,45.490196%,72.54902%);fill-opacity:1;" d="M 10.007812 12.136719 C 10.007812 12.136719 9.433594 12.457031 10.414062 12.566406 C 11.605469 12.695312 12.210938 12.675781 13.523438 12.441406 C 13.523438 12.441406 13.867188 12.648438 14.351562 12.824219 C 11.410156 14.03125 7.699219 12.757812 10.007812 12.136719 Z M 9.648438 10.5625 C 9.648438 10.5625 9.003906 11.019531 9.988281 11.117188 C 11.257812 11.242188 12.261719 11.253906 13.996094 10.933594 C 13.996094 10.933594 14.238281 11.167969 14.613281 11.292969 C 11.0625 12.289062 7.105469 11.371094 9.648438 10.5625 Z M 9.648438 10.5625 "/>
<path style=" stroke:none;fill-rule:evenodd;fill:rgb(79.215686%,19.215686%,19.607843%);fill-opacity:1;" d="M 12.675781 7.890625 C 13.398438 8.691406 12.484375 9.410156 12.484375 9.410156 C 12.484375 9.410156 14.324219 8.5 13.480469 7.363281 C 12.691406 6.300781 12.085938 5.773438 15.359375 3.953125 C 15.359375 3.953125 10.222656 5.183594 12.675781 7.890625 Z M 12.675781 7.890625 "/>
<path style=" stroke:none;fill-rule:evenodd;fill:rgb(19.215686%,45.490196%,72.54902%);fill-opacity:1;" d="M 16.5625 13.304688 C 16.5625 13.304688 16.984375 13.636719 16.09375 13.898438 C 14.398438 14.390625 9.035156 14.539062 7.542969 13.917969 C 7.011719 13.695312 8.015625 13.382812 8.328125 13.320312 C 8.660156 13.25 8.847656 13.261719 8.847656 13.261719 C 8.25 12.863281 4.996094 14.050781 7.195312 14.394531 C 13.183594 15.324219 18.113281 13.976562 16.5625 13.304688 Z M 10.28125 8.933594 C 10.28125 8.933594 7.554688 9.554688 9.316406 9.777344 C 10.0625 9.875 11.542969 9.851562 12.925781 9.742188 C 14.054688 9.652344 15.1875 9.457031 15.1875 9.457031 C 15.1875 9.457031 14.789062 9.621094 14.5 9.808594 C 11.730469 10.507812 6.378906 10.179688 7.921875 9.46875 C 9.222656 8.863281 10.28125 8.933594 10.28125 8.933594 Z M 15.175781 11.554688 C 17.992188 10.152344 16.691406 8.804688 15.78125 8.984375 C 15.558594 9.03125 15.460938 9.066406 15.460938 9.066406 C 15.460938 9.066406 15.542969 8.945312 15.699219 8.890625 C 17.5 8.285156 18.878906 10.675781 15.121094 11.625 C 15.121094 11.625 15.164062 11.585938 15.175781 11.554688 Z M 15.175781 11.554688 "/>
<path style=" stroke:none;fill-rule:evenodd;fill:rgb(79.215686%,19.215686%,19.607843%);fill-opacity:1;" d="M 13.480469 1.015625 C 13.480469 1.015625 15.039062 2.511719 12 4.808594 C 9.5625 6.652344 11.445312 7.703125 12 8.90625 C 10.578125 7.675781 9.53125 6.59375 10.234375 5.585938 C 11.261719 4.105469 14.109375 3.390625 13.480469 1.015625 Z M 13.480469 1.015625 "/>
<path style=" stroke:none;fill-rule:evenodd;fill:rgb(19.215686%,45.490196%,72.54902%);fill-opacity:1;" d="M 10.558594 15.355469 C 13.261719 15.519531 17.414062 15.261719 17.511719 14.035156 C 17.511719 14.035156 17.324219 14.5 15.277344 14.867188 C 12.972656 15.285156 10.125 15.238281 8.4375 14.96875 C 8.4375 14.96875 8.785156 15.242188 10.558594 15.355469 Z M 10.558594 15.355469 "/>
<path style=" stroke:none;fill-rule:evenodd;fill:rgb(79.215686%,19.215686%,19.607843%);fill-opacity:1;" d="M 17.386719 17.550781 L 17.304688 17.550781 L 17.304688 17.507812 L 17.527344 17.507812 L 17.527344 17.550781 L 17.445312 17.550781 L 17.445312 17.773438 L 17.386719 17.773438 Z M 17.828125 17.5625 L 17.746094 17.773438 L 17.710938 17.773438 L 17.628906 17.5625 L 17.628906 17.773438 L 17.574219 17.773438 L 17.574219 17.507812 L 17.652344 17.507812 L 17.726562 17.695312 L 17.804688 17.507812 L 17.882812 17.507812 L 17.882812 17.773438 L 17.828125 17.773438 Z M 10.117188 20.035156 C 9.863281 20.25 9.59375 20.367188 9.351562 20.367188 C 9.007812 20.367188 8.820312 20.167969 8.820312 19.851562 C 8.820312 19.507812 9.019531 19.257812 9.820312 19.257812 L 10.117188 19.257812 Z M 10.820312 20.796875 L 10.820312 18.441406 C 10.820312 17.839844 10.460938 17.445312 9.597656 17.445312 C 9.09375 17.445312 8.652344 17.5625 8.296875 17.714844 L 8.398438 18.132812 C 8.679688 18.03125 9.046875 17.941406 9.40625 17.941406 C 9.902344 17.941406 10.117188 18.132812 10.117188 18.527344 L 10.117188 18.828125 L 9.867188 18.828125 C 8.660156 18.828125 8.117188 19.277344 8.117188 19.949219 C 8.117188 20.53125 8.472656 20.863281 9.152344 20.863281 C 9.585938 20.863281 9.910156 20.691406 10.214844 20.441406 L 10.269531 20.796875 Z M 13.167969 20.796875 L 12.292969 20.796875 L 11.234375 17.503906 L 12 17.503906 L 12.65625 19.527344 L 12.800781 20.136719 C 13.132812 19.257812 13.367188 18.363281 13.484375 17.503906 L 14.230469 17.503906 C 14.03125 18.589844 13.671875 19.777344 13.167969 20.796875 Z M 16.535156 20.035156 C 16.277344 20.25 16.007812 20.367188 15.769531 20.367188 C 15.421875 20.367188 15.238281 20.167969 15.238281 19.851562 C 15.238281 19.507812 15.4375 19.257812 16.238281 19.257812 L 16.535156 19.257812 Z M 17.238281 20.796875 L 17.238281 18.441406 C 17.238281 17.839844 16.878906 17.445312 16.015625 17.445312 C 15.511719 17.445312 15.070312 17.5625 14.710938 17.714844 L 14.816406 18.132812 C 15.097656 18.03125 15.464844 17.941406 15.824219 17.941406 C 16.320312 17.941406 16.535156 18.132812 16.535156 18.527344 L 16.535156 18.828125 L 16.285156 18.828125 C 15.078125 18.828125 14.535156 19.277344 14.535156 19.949219 C 14.535156 20.53125 14.890625 20.863281 15.566406 20.863281 C 16.003906 20.863281 16.328125 20.691406 16.632812 20.441406 L 16.6875 20.796875 Z M 7.34375 21.355469 C 7.144531 21.636719 6.820312 21.859375 6.464844 21.984375 L 6.117188 21.59375 C 6.386719 21.460938 6.617188 21.246094 6.726562 21.046875 C 6.820312 20.867188 6.859375 20.640625 6.859375 20.09375 L 6.859375 16.332031 L 7.605469 16.332031 L 7.605469 20.039062 C 7.605469 20.773438 7.542969 21.070312 7.34375 21.355469 Z M 7.34375 21.355469 "/>
</g>
</svg>
