<?xml version="1.0" encoding="UTF-8"?>
<svg xmlns="http://www.w3.org/2000/svg" xmlns:xlink="http://www.w3.org/1999/xlink" width="24px" height="px" viewBox="0 0 24 24" version="1.1">
<g id="surface1">
<path style=" stroke:none;fill-rule:nonzero;fill:rgb(100%,100%,100%);fill-opacity:1;" d="M 16.269531 18.183594 C 16.023438 18.183594 15.855469 18.207031 15.769531 18.230469 L 15.769531 19.816406 C 15.871094 19.839844 16 19.847656 16.175781 19.847656 C 16.820312 19.847656 17.21875 19.519531 17.21875 18.972656 C 17.21875 18.476562 16.875 18.183594 16.269531 18.183594 Z M 16.269531 18.183594 "/>
<path style=" stroke:none;fill-rule:nonzero;fill:rgb(100%,100%,100%);fill-opacity:1;" d="M 20.703125 5.75 C 20.699219 5.640625 20.664062 5.53125 20.589844 5.445312 L 15.960938 0.160156 C 15.960938 0.160156 15.960938 0.160156 15.957031 0.15625 C 15.929688 0.125 15.898438 0.101562 15.863281 0.078125 C 15.855469 0.0742188 15.84375 0.0664062 15.832031 0.0625 C 15.804688 0.0429688 15.773438 0.03125 15.742188 0.0234375 C 15.730469 0.0195312 15.722656 0.015625 15.714844 0.0117188 C 15.679688 0.00390625 15.644531 0 15.609375 0 L 4.234375 0 C 3.714844 0 3.292969 0.421875 3.292969 0.941406 L 3.292969 23.058594 C 3.292969 23.578125 3.714844 24 4.234375 24 L 19.765625 24 C 20.285156 24 20.707031 23.578125 20.707031 23.058594 L 20.707031 5.804688 C 20.707031 5.785156 20.703125 5.769531 20.703125 5.75 Z M 9.257812 20.699219 C 9.257812 22.226562 8.523438 22.761719 7.347656 22.761719 C 7.066406 22.761719 6.699219 22.714844 6.460938 22.632812 L 6.597656 21.65625 C 6.765625 21.710938 6.980469 21.75 7.21875 21.75 C 7.726562 21.75 8.046875 21.519531 8.046875 20.683594 L 8.046875 17.308594 L 9.257812 17.308594 Z M 11.582031 22.753906 C 10.96875 22.753906 10.363281 22.59375 10.058594 22.425781 L 10.308594 21.421875 C 10.632812 21.589844 11.136719 21.757812 11.652344 21.757812 C 12.210938 21.757812 12.503906 21.527344 12.503906 21.175781 C 12.503906 20.84375 12.25 20.652344 11.605469 20.421875 C 10.714844 20.109375 10.132812 19.617188 10.132812 18.835938 C 10.132812 17.921875 10.898438 17.21875 12.164062 17.21875 C 12.765625 17.21875 13.210938 17.347656 13.53125 17.492188 L 13.261719 18.46875 C 13.046875 18.367188 12.664062 18.214844 12.136719 18.214844 C 11.613281 18.214844 11.359375 18.453125 11.359375 18.730469 C 11.359375 19.074219 11.660156 19.226562 12.355469 19.488281 C 13.300781 19.839844 13.746094 20.332031 13.746094 21.089844 C 13.746094 21.988281 13.054688 22.753906 11.582031 22.753906 Z M 17.925781 20.214844 C 17.511719 20.601562 16.898438 20.777344 16.183594 20.777344 C 16.023438 20.777344 15.878906 20.769531 15.769531 20.753906 L 15.769531 22.671875 L 14.566406 22.671875 L 14.566406 17.378906 C 14.941406 17.316406 15.464844 17.265625 16.207031 17.265625 C 16.953125 17.265625 17.488281 17.410156 17.847656 17.695312 C 18.1875 17.96875 18.417969 18.414062 18.417969 18.9375 C 18.417969 19.464844 18.246094 19.910156 17.925781 20.214844 Z M 4.234375 15.980469 L 4.234375 0.941406 L 15.136719 0.941406 L 15.136719 5.757812 C 15.136719 6.015625 15.347656 6.226562 15.609375 6.226562 L 19.765625 6.226562 L 19.765625 15.980469 Z M 4.234375 15.980469 "/>
<path style=" stroke:none;fill-rule:nonzero;fill:rgb(100%,100%,100%);fill-opacity:1;" d="M 11.210938 8.910156 C 11.210938 8.910156 10.578125 7.691406 10.601562 6.800781 C 10.617188 6.164062 12.050781 5.535156 12.617188 4.621094 C 13.175781 3.710938 12.546875 2.820312 12.546875 2.820312 C 12.546875 2.820312 12.6875 3.476562 12.3125 4.15625 C 11.9375 4.832031 10.554688 5.234375 10.015625 6.402344 C 9.476562 7.574219 11.210938 8.910156 11.210938 8.910156 Z M 11.210938 8.910156 "/>
<path style=" stroke:none;fill-rule:nonzero;fill:rgb(100%,100%,100%);fill-opacity:1;" d="M 13.578125 5.210938 C 13.578125 5.210938 11.421875 6.027344 11.421875 6.964844 C 11.421875 7.902344 12.007812 8.207031 12.101562 8.511719 C 12.195312 8.816406 11.9375 9.332031 11.9375 9.332031 C 11.9375 9.332031 12.78125 8.746094 12.640625 8.066406 C 12.5 7.386719 11.84375 7.175781 12.21875 6.496094 C 12.46875 6.042969 13.578125 5.210938 13.578125 5.210938 Z M 13.578125 5.210938 "/>
<path style=" stroke:none;fill-rule:nonzero;fill:rgb(100%,100%,100%);fill-opacity:1;" d="M 10.976562 10.148438 C 13.199219 10.066406 13.460938 9.648438 13.695312 9.449219 C 12.40625 9.796875 8.988281 9.777344 8.960938 9.519531 C 8.9375 9.261719 10.015625 9.050781 10.015625 9.050781 C 10.015625 9.050781 8.328125 9.050781 8.1875 9.472656 C 8.046875 9.894531 8.988281 10.214844 10.976562 10.148438 Z M 10.976562 10.148438 "/>
<path style=" stroke:none;fill-rule:nonzero;fill:rgb(100%,100%,100%);fill-opacity:1;" d="M 14.019531 9.097656 C 14.019531 9.097656 14.980469 9.097656 15.074219 9.683594 C 15.167969 10.265625 13.859375 11.132812 13.859375 11.132812 C 13.859375 11.132812 15.921875 10.71875 15.730469 9.660156 C 15.496094 8.371094 14.019531 9.097656 14.019531 9.097656 Z M 14.019531 9.097656 "/>
<path style=" stroke:none;fill-rule:nonzero;fill:rgb(100%,100%,100%);fill-opacity:1;" d="M 11.675781 10.78125 C 10.703125 10.894531 9.523438 10.804688 9.429688 10.640625 C 9.335938 10.476562 9.59375 10.382812 9.59375 10.382812 C 8.421875 10.664062 9.0625 11.15625 10.4375 11.25 C 11.613281 11.332031 12.929688 10.898438 12.929688 10.898438 L 13.332031 10.570312 C 13.332031 10.570312 12.40625 10.699219 11.675781 10.78125 Z M 11.675781 10.78125 "/>
<path style=" stroke:none;fill-rule:nonzero;fill:rgb(100%,100%,100%);fill-opacity:1;" d="M 9.875 11.59375 C 9.875 11.59375 9.34375 11.609375 9.3125 11.890625 C 9.28125 12.171875 9.476562 12.3125 10.792969 12.28125 C 12.355469 12.246094 12.617188 12.058594 12.777344 11.921875 L 13.160156 11.636719 C 12.136719 11.769531 12.058594 11.804688 11.480469 11.820312 C 10.894531 11.835938 9.875 11.875 9.828125 11.765625 C 9.78125 11.65625 9.875 11.59375 9.875 11.59375 Z M 9.875 11.59375 "/>
<path style=" stroke:none;fill-rule:nonzero;fill:rgb(100%,100%,100%);fill-opacity:1;" d="M 14.980469 12.859375 C 15.183594 12.640625 14.917969 12.46875 14.917969 12.46875 C 14.917969 12.46875 15.011719 12.578125 14.886719 12.703125 C 14.761719 12.828125 13.621094 13.140625 11.796875 13.234375 C 9.96875 13.328125 7.984375 13.0625 7.921875 12.828125 C 7.863281 12.59375 8.9375 12.40625 8.9375 12.40625 C 8.8125 12.421875 7.316406 12.453125 7.265625 12.859375 C 7.222656 13.265625 7.921875 13.59375 10.734375 13.59375 C 13.546875 13.59375 14.777344 13.078125 14.980469 12.859375 Z M 14.980469 12.859375 "/>
<path style=" stroke:none;fill-rule:nonzero;fill:rgb(100%,100%,100%);fill-opacity:1;" d="M 13.886719 13.78125 C 12.65625 14.03125 8.910156 13.875 8.910156 13.875 C 8.910156 13.875 11.34375 14.449219 14.121094 13.96875 C 15.449219 13.734375 15.527344 13.09375 15.527344 13.09375 C 15.527344 13.09375 15.121094 13.53125 13.886719 13.78125 Z M 13.886719 13.78125 "/>
</g>
</svg>
