<?xml version="1.0" encoding="UTF-8"?>
<svg xmlns="http://www.w3.org/2000/svg" xmlns:xlink="http://www.w3.org/1999/xlink" width="24px" height="px" viewBox="0 0 24 15" version="1.1">
<g id="surface1">
<path style=" stroke:none;fill-rule:nonzero;fill:rgb(100%,100%,100%);fill-opacity:1;" d="M 22.347656 14.988281 L 1.722656 14.988281 C 0.789062 14.988281 0 14.1875 0 13.242188 L 0 1.746094 C 0 0.800781 0.789062 0 1.722656 0 L 22.277344 0 C 23.210938 0 24 0.800781 24 1.746094 L 24 13.242188 C 24 14.1875 23.28125 14.988281 22.347656 14.988281 Z M 1.722656 1.164062 C 1.4375 1.164062 1.148438 1.457031 1.148438 1.746094 L 1.148438 13.242188 C 1.148438 13.605469 1.4375 13.824219 1.722656 13.824219 L 22.277344 13.824219 C 22.632812 13.824219 22.851562 13.535156 22.851562 13.242188 L 22.851562 1.746094 C 22.851562 1.382812 22.5625 1.164062 22.277344 1.164062 Z M 3.449219 11.496094 L 3.449219 3.492188 L 5.75 3.492188 L 8.046875 6.402344 L 10.347656 3.492188 L 12.648438 3.492188 L 12.648438 11.496094 L 10.347656 11.496094 L 10.347656 6.914062 L 8.046875 9.824219 L 5.75 6.914062 L 5.75 11.496094 Z M 17.890625 11.496094 L 14.441406 7.640625 L 16.742188 7.640625 L 16.742188 3.492188 L 19.042969 3.492188 L 19.042969 7.566406 L 21.339844 7.566406 Z M 17.890625 11.496094 "/>
</g>
</svg>
