<?xml version="1.0" encoding="UTF-8"?>
<svg xmlns="http://www.w3.org/2000/svg" xmlns:xlink="http://www.w3.org/1999/xlink" width="24px" height="px" viewBox="0 0 24 24" version="1.1">
<defs>
<linearGradient id="linear0" gradientUnits="userSpaceOnUse" x1="278.4418" y1="680.1855" x2="298.5859" y2="680.1855" gradientTransform="matrix(0.432,0,0,-0.432,-113.735112,304.563048)">
<stop offset="0" style="stop-color:rgb(0%,0%,0%);stop-opacity:1;"/>
<stop offset="1" style="stop-color:rgb(42.745098%,33.72549%,33.72549%);stop-opacity:1;"/>
</linearGradient>
<linearGradient id="linear1" gradientUnits="userSpaceOnUse" x1="309.1693" y1="672.5473" x2="357.1335" y2="703.683" gradientTransform="matrix(0.431472,-0.0214137,-0.0214137,-0.431472,-111.8172,315.097752)">
<stop offset="0" style="stop-color:rgb(0%,0%,0%);stop-opacity:1;"/>
<stop offset="1" style="stop-color:rgb(42.745098%,33.72549%,33.72549%);stop-opacity:1;"/>
</linearGradient>
<linearGradient id="linear2" gradientUnits="userSpaceOnUse" x1="276.4759" y1="675.3591" x2="292.955" y2="681.7938" gradientTransform="matrix(0.432,0,0,-0.432,-113.735112,304.563048)">
<stop offset="0" style="stop-color:rgb(0%,0%,0%);stop-opacity:1;"/>
<stop offset="1" style="stop-color:rgb(42.745098%,33.72549%,33.72549%);stop-opacity:1;"/>
</linearGradient>
</defs>
<g id="surface1">
<path style=" stroke:none;fill-rule:nonzero;fill:rgb(10.196078%,10.196078%,10.196078%);fill-opacity:1;" d="M 20.566406 10.007812 C 22.054688 10.441406 22.054688 10.441406 22.054688 10.441406 L 20.664062 10.847656 L 21.625 11.257812 L 20.617188 11.449219 Z M 20.566406 10.007812 "/>
<path style=" stroke:none;fill-rule:nonzero;fill:rgb(0%,0%,0%);fill-opacity:1;" d="M 20.425781 11.6875 L 20.398438 10.96875 L 20.0625 10.824219 L 20.398438 10.726562 L 20.375 9.742188 L 22.824219 10.464844 L 21.3125 10.921875 L 22.367188 11.351562 Z M 20.808594 11.160156 L 20.808594 11.207031 L 20.878906 11.183594 Z M 20.785156 10.296875 L 20.785156 10.609375 L 21.3125 10.464844 Z M 20.785156 10.296875 "/>
<path style=" stroke:none;fill-rule:nonzero;fill:url(#linear0);" d="M 6.550781 7.246094 C 6.359375 9.792969 9.40625 13.871094 12.433594 14.207031 C 13.609375 14.328125 15.335938 13.222656 15.238281 12.046875 C 15 8.734375 9.910156 8.566406 6.550781 7.246094 Z M 6.550781 7.246094 "/>
<path style=" stroke:none;fill-rule:nonzero;fill:url(#linear1);" d="M 1.199219 16.679688 C 4.511719 20.351562 10.464844 22.03125 14.785156 20.230469 C 18.382812 18.742188 20.734375 13.945312 20.734375 10.152344 C 20.734375 7.535156 18.121094 4.585938 14.257812 5.808594 C 12.527344 6.359375 11.207031 8.089844 10.078125 9.671875 C 7.585938 12.984375 5.375 15.238281 1.199219 16.679688 Z M 1.199219 16.679688 "/>
<path style=" stroke:none;fill-rule:nonzero;fill:url(#linear2);" d="M 3.695312 9.238281 C 3.910156 11.785156 7.585938 15.335938 10.609375 15.167969 C 11.785156 15.097656 13.320312 13.726562 13.03125 12.574219 C 12.265625 9.359375 7.199219 10.007812 3.695312 9.238281 Z M 3.695312 9.238281 "/>
<path style=" stroke:none;fill-rule:nonzero;fill:rgb(83.137255%,0%,0%);fill-opacity:1;" d="M 12.070312 7.222656 C 13.128906 7.320312 14.976562 7.65625 16.441406 7.753906 C 17.640625 7.824219 19.054688 7.800781 20.039062 7.777344 C 20.761719 9 20.855469 9.9375 20.640625 11.472656 C 18.527344 11.832031 16.945312 11.542969 15.214844 10.992188 C 13.65625 10.488281 12.097656 9.742188 10.96875 8.472656 C 11.472656 7.753906 11.640625 7.609375 12.070312 7.222656 Z M 12.070312 7.222656 "/>
<path style=" stroke:none;fill-rule:nonzero;fill:rgb(100%,100%,100%);fill-opacity:1;" d="M 19.867188 10.246094 C 19.65625 10.804688 18.960938 10.988281 18.253906 10.691406 C 17.546875 10.390625 17.175781 9.714844 17.375 9.195312 C 17.574219 8.671875 18.285156 8.453125 18.992188 8.75 C 19.671875 8.992188 20.082031 9.6875 19.867188 10.246094 Z M 19.867188 10.246094 "/>
<path style=" stroke:none;fill-rule:nonzero;fill:rgb(10.196078%,10.196078%,10.196078%);fill-opacity:1;" d="M 19.800781 10.171875 C 19.644531 10.582031 19.140625 10.761719 18.644531 10.550781 C 18.144531 10.339844 17.898438 9.847656 18.054688 9.4375 C 18.210938 9.027344 18.714844 8.847656 19.210938 9.058594 C 19.667969 9.25 19.957031 9.761719 19.800781 10.171875 Z M 19.800781 10.171875 "/>
<path style=" stroke:none;fill-rule:nonzero;fill:rgb(100%,100%,100%);fill-opacity:1;" d="M 19.582031 9.605469 C 19.527344 9.753906 19.359375 9.8125 19.191406 9.742188 C 19.027344 9.671875 18.945312 9.507812 19 9.359375 C 19.058594 9.210938 19.226562 9.152344 19.390625 9.222656 C 19.558594 9.292969 19.625 9.492188 19.582031 9.605469 Z M 19.582031 9.605469 "/>
<path style=" stroke:none;fill-rule:nonzero;fill:rgb(10.196078%,10.196078%,10.196078%);fill-opacity:1;" d="M 19.777344 9.457031 C 19.511719 9.289062 19.296875 9.070312 19.03125 8.902344 C 18.769531 8.734375 18.527344 8.566406 18.238281 8.449219 C 18.121094 8.398438 18 8.351562 17.855469 8.328125 C 17.761719 8.351562 17.878906 8.28125 17.878906 8.257812 C 17.976562 8.160156 18.046875 8.0625 18.144531 7.96875 C 18.265625 7.992188 18.359375 8.039062 18.457031 8.0625 C 18.742188 8.183594 19.007812 8.351562 19.273438 8.542969 C 19.535156 8.710938 19.777344 8.929688 20.039062 9.097656 C 20.113281 9.121094 20.113281 9.167969 20.0625 9.191406 C 19.992188 9.265625 19.871094 9.359375 19.777344 9.457031 Z M 19.777344 9.457031 "/>
<path style=" stroke:none;fill-rule:nonzero;fill:rgb(83.137255%,0%,0%);fill-opacity:1;" d="M 12.289062 8.640625 C 11.785156 8.617188 11.183594 8.6875 10.800781 8.207031 C 10.464844 7.824219 10.175781 7.367188 10.007812 6.863281 C 9.984375 6.503906 9.984375 6.046875 9.648438 5.878906 C 9.265625 5.640625 8.808594 5.664062 8.375 5.59375 C 7.585938 5.542969 6.816406 5.878906 6.070312 6.167969 C 5.710938 6.3125 5.28125 6.289062 5.015625 5.929688 C 4.824219 5.6875 4.679688 5.398438 4.558594 5.113281 C 4.367188 4.921875 4.367188 4.632812 4.609375 4.558594 C 4.753906 4.464844 4.921875 4.34375 5.0625 4.246094 C 5.304688 4.777344 5.496094 5.425781 6 5.664062 C 6.527344 5.785156 7.007812 5.449219 7.488281 5.304688 C 8.183594 5.039062 8.929688 4.992188 9.625 5.136719 C 10.03125 5.183594 10.535156 5.351562 10.65625 5.878906 C 10.703125 6.335938 10.777344 6.792969 11.039062 7.128906 C 11.304688 7.585938 11.6875 8.039062 12.191406 8.0625 C 12.359375 8.136719 12.910156 7.992188 12.839844 8.160156 C 12.648438 8.304688 12.457031 8.472656 12.289062 8.640625 Z M 12.289062 8.640625 "/>
<path style=" stroke:none;fill-rule:nonzero;fill:rgb(83.137255%,0%,0%);fill-opacity:1;" d="M 11.953125 8.398438 C 11.59375 8.160156 11.136719 7.945312 10.96875 7.511719 C 10.871094 7.222656 10.753906 6.910156 10.703125 6.601562 C 10.65625 6.191406 10.703125 5.761719 10.679688 5.328125 C 10.753906 5.0625 10.585938 4.824219 10.296875 4.753906 C 9.9375 4.65625 9.574219 4.65625 9.214844 4.609375 C 8.878906 4.585938 8.496094 4.65625 8.230469 4.414062 C 8.039062 4.175781 7.945312 3.863281 7.847656 3.574219 C 7.824219 3.433594 8.015625 3.40625 8.113281 3.335938 C 8.28125 3.238281 8.425781 3.144531 8.59375 3.023438 C 8.617188 3.3125 8.761719 3.574219 8.855469 3.816406 C 9 4.078125 9.335938 4.105469 9.625 4.105469 C 10.054688 4.128906 10.488281 4.128906 10.921875 4.222656 C 11.183594 4.296875 11.496094 4.464844 11.472656 4.777344 C 11.496094 5.425781 11.375 6.070312 11.617188 6.695312 C 11.710938 6.984375 11.808594 7.273438 12.046875 7.464844 C 12.238281 7.632812 12.457031 7.753906 12.671875 7.871094 C 12.503906 8.015625 12.289062 8.136719 12.097656 8.257812 C 12.023438 8.328125 11.976562 8.351562 11.953125 8.398438 Z M 11.953125 8.398438 "/>
</g>
</svg>
