<?xml version="1.0" encoding="UTF-8"?>
<svg xmlns="http://www.w3.org/2000/svg" xmlns:xlink="http://www.w3.org/1999/xlink" width="24px" height="px" viewBox="0 0 23 23" version="1.1">
<g id="surface1">
<path style=" stroke:none;fill-rule:evenodd;fill:rgb(87.843137%,13.72549%,30.588235%);fill-opacity:1;" d="M 12.285156 0.742188 C 12.136719 0.742188 11.996094 0.773438 11.867188 0.820312 C 12.140625 1.007812 12.292969 1.261719 12.367188 1.542969 C 12.375 1.585938 12.382812 1.613281 12.390625 1.652344 C 12.394531 1.683594 12.398438 1.71875 12.398438 1.75 C 12.421875 2.242188 12.277344 2.304688 12.171875 2.59375 C 12.015625 2.96875 12.058594 3.371094 12.25 3.691406 C 12.265625 3.730469 12.285156 3.777344 12.3125 3.816406 C 12.109375 2.402344 13.246094 2.191406 13.457031 1.75 C 13.472656 1.367188 13.164062 1.109375 12.921875 0.929688 C 12.691406 0.785156 12.480469 0.742188 12.285156 0.742188 Z M 14 1.058594 C 13.980469 1.1875 13.996094 1.15625 13.988281 1.222656 C 13.984375 1.265625 13.984375 1.320312 13.980469 1.367188 C 13.96875 1.410156 13.957031 1.457031 13.941406 1.5 C 13.929688 1.542969 13.914062 1.589844 13.898438 1.632812 C 13.875 1.679688 13.859375 1.71875 13.839844 1.761719 C 13.824219 1.785156 13.8125 1.808594 13.796875 1.828125 L 13.761719 1.878906 C 13.738281 1.917969 13.710938 1.957031 13.683594 1.992188 C 13.648438 2.023438 13.625 2.0625 13.585938 2.089844 L 13.585938 2.097656 C 13.554688 2.125 13.519531 2.160156 13.484375 2.1875 C 13.371094 2.277344 13.242188 2.34375 13.121094 2.425781 C 13.085938 2.453125 13.046875 2.476562 13.015625 2.511719 C 12.976562 2.539062 12.945312 2.566406 12.910156 2.597656 C 12.875 2.632812 12.847656 2.667969 12.816406 2.707031 C 12.789062 2.738281 12.753906 2.777344 12.734375 2.816406 C 12.707031 2.855469 12.679688 2.894531 12.660156 2.933594 C 12.636719 2.980469 12.621094 3.019531 12.597656 3.0625 C 12.582031 3.105469 12.566406 3.144531 12.554688 3.191406 C 12.542969 3.238281 12.527344 3.28125 12.519531 3.332031 C 12.511719 3.351562 12.511719 3.378906 12.507812 3.402344 C 12.503906 3.425781 12.503906 3.449219 12.496094 3.46875 C 12.496094 3.515625 12.492188 3.5625 12.492188 3.609375 C 12.492188 3.640625 12.492188 3.675781 12.496094 3.710938 C 12.496094 3.753906 12.503906 3.796875 12.511719 3.847656 C 12.519531 3.894531 12.53125 3.9375 12.539062 3.984375 C 12.554688 4.027344 12.566406 4.070312 12.582031 4.117188 C 12.59375 4.144531 12.609375 4.171875 12.621094 4.195312 L 11.382812 3.699219 C 11.171875 3.636719 10.964844 3.582031 10.757812 3.53125 L 10.417969 3.445312 C 10.09375 3.378906 9.765625 3.328125 9.4375 3.296875 C 9.425781 3.296875 9.417969 3.292969 9.410156 3.292969 C 9.085938 3.257812 8.769531 3.242188 8.445312 3.242188 C 8.207031 3.242188 7.96875 3.253906 7.738281 3.269531 C 7.410156 3.292969 7.082031 3.335938 6.753906 3.390625 C 6.671875 3.402344 6.589844 3.417969 6.511719 3.4375 C 6.34375 3.46875 6.179688 3.507812 6.023438 3.546875 L 5.78125 3.613281 C 5.703125 3.648438 5.625 3.6875 5.550781 3.71875 L 5.371094 3.804688 C 5.363281 3.808594 5.351562 3.808594 5.347656 3.816406 C 5.292969 3.84375 5.242188 3.867188 5.195312 3.894531 C 5.179688 3.898438 5.167969 3.90625 5.15625 3.910156 C 5.097656 3.9375 5.039062 3.972656 4.988281 4 C 4.953125 4.015625 4.914062 4.039062 4.882812 4.054688 C 4.867188 4.066406 4.84375 4.078125 4.832031 4.082031 C 4.785156 4.109375 4.738281 4.140625 4.695312 4.167969 C 4.644531 4.195312 4.601562 4.222656 4.566406 4.25 C 4.527344 4.277344 4.488281 4.300781 4.457031 4.328125 C 4.453125 4.335938 4.445312 4.335938 4.441406 4.339844 C 4.40625 4.363281 4.371094 4.390625 4.339844 4.417969 L 4.328125 4.429688 L 4.246094 4.496094 C 4.234375 4.5 4.226562 4.511719 4.214844 4.519531 C 4.1875 4.539062 4.160156 4.570312 4.132812 4.589844 C 4.128906 4.601562 4.117188 4.609375 4.113281 4.613281 C 4.078125 4.648438 4.046875 4.675781 4.015625 4.707031 C 4.007812 4.707031 4.007812 4.714844 4.003906 4.71875 C 3.972656 4.746094 3.9375 4.78125 3.90625 4.8125 C 3.902344 4.820312 3.902344 4.824219 3.894531 4.824219 C 3.867188 4.855469 3.839844 4.882812 3.816406 4.914062 C 3.804688 4.925781 3.789062 4.9375 3.777344 4.949219 C 3.75 4.980469 3.71875 5.015625 3.6875 5.046875 C 3.679688 5.058594 3.667969 5.066406 3.664062 5.074219 C 3.621094 5.121094 3.582031 5.164062 3.539062 5.210938 L 3.523438 5.226562 C 3.4375 5.320312 3.347656 5.417969 3.25 5.5 C 3.152344 5.589844 3.054688 5.671875 2.949219 5.746094 C 2.84375 5.820312 2.734375 5.890625 2.625 5.957031 C 2.515625 6.019531 2.402344 6.074219 2.285156 6.125 C 2.171875 6.175781 2.054688 6.21875 1.933594 6.257812 C 1.707031 6.308594 1.476562 6.402344 1.277344 6.421875 C 1.234375 6.421875 1.1875 6.433594 1.140625 6.4375 C 1.09375 6.449219 1.050781 6.460938 1.007812 6.472656 L 0.878906 6.519531 C 0.835938 6.539062 0.792969 6.558594 0.75 6.582031 C 0.710938 6.609375 0.667969 6.632812 0.628906 6.660156 C 0.59375 6.6875 0.554688 6.722656 0.523438 6.753906 C 0.484375 6.785156 0.449219 6.824219 0.414062 6.855469 C 0.382812 6.894531 0.351562 6.929688 0.324219 6.96875 C 0.296875 7.011719 0.265625 7.050781 0.242188 7.09375 C 0.214844 7.132812 0.1875 7.179688 0.167969 7.222656 C 0.144531 7.273438 0.125 7.320312 0.109375 7.367188 C 0.0898438 7.417969 0.0742188 7.464844 0.0585938 7.515625 C 0.046875 7.558594 0.0390625 7.601562 0.03125 7.648438 C 0.03125 7.652344 0.0273438 7.660156 0.0273438 7.664062 C 0.015625 7.714844 0.015625 7.78125 0.0117188 7.816406 C 0.00390625 7.855469 0 7.886719 0 7.925781 C 0 7.949219 0 7.976562 0.00390625 8 C 0.0117188 8.039062 0.015625 8.070312 0.0273438 8.105469 C 0.0390625 8.140625 0.046875 8.171875 0.0664062 8.207031 L 0.0664062 8.210938 C 0.0820312 8.246094 0.101562 8.277344 0.125 8.3125 C 0.144531 8.34375 0.167969 8.378906 0.195312 8.414062 C 0.222656 8.441406 0.253906 8.472656 0.285156 8.5 C 0.316406 8.535156 0.351562 8.5625 0.386719 8.589844 C 0.515625 8.707031 0.550781 8.746094 0.714844 8.835938 C 0.742188 8.851562 0.769531 8.863281 0.804688 8.878906 C 0.808594 8.878906 0.8125 8.886719 0.820312 8.886719 C 0.820312 8.898438 0.820312 8.902344 0.824219 8.914062 C 0.828125 8.957031 0.839844 9.003906 0.851562 9.046875 C 0.863281 9.09375 0.875 9.140625 0.894531 9.183594 C 0.910156 9.214844 0.921875 9.25 0.9375 9.28125 C 0.941406 9.292969 0.949219 9.304688 0.953125 9.308594 C 0.976562 9.355469 0.996094 9.394531 1.019531 9.433594 L 1.097656 9.550781 C 1.125 9.582031 1.160156 9.621094 1.191406 9.65625 C 1.222656 9.691406 1.253906 9.71875 1.292969 9.75 C 1.292969 9.75 1.296875 9.757812 1.304688 9.757812 C 1.335938 9.785156 1.367188 9.8125 1.402344 9.835938 C 1.4375 9.863281 1.476562 9.886719 1.519531 9.90625 C 1.558594 9.929688 1.601562 9.953125 1.644531 9.96875 C 1.675781 9.984375 1.714844 9.996094 1.75 10.007812 C 1.757812 10.011719 1.761719 10.011719 1.773438 10.019531 C 1.792969 10.023438 1.820312 10.03125 1.84375 10.035156 C 1.828125 10.335938 1.820312 10.621094 1.863281 10.722656 C 1.914062 10.832031 2.148438 10.492188 2.386719 10.101562 C 2.355469 10.488281 2.332031 10.9375 2.386719 11.074219 C 2.445312 11.210938 2.769531 10.777344 3.050781 10.296875 C 6.871094 9.382812 10.359375 12.117188 10.722656 15.976562 C 10.652344 15.375 9.9375 15.039062 9.609375 15.125 C 9.445312 15.535156 9.171875 16.066406 8.730469 16.394531 C 8.769531 16.023438 8.75 15.644531 8.675781 15.28125 C 8.558594 15.792969 8.324219 16.273438 8.007812 16.683594 C 7.496094 16.722656 6.984375 16.46875 6.714844 16.082031 C 6.691406 16.066406 6.6875 16.03125 6.671875 16.011719 C 6.65625 15.972656 6.640625 15.933594 6.628906 15.894531 C 6.613281 15.855469 6.601562 15.816406 6.597656 15.777344 C 6.589844 15.738281 6.589844 15.699219 6.589844 15.652344 L 6.589844 15.570312 C 6.597656 15.53125 6.605469 15.492188 6.617188 15.453125 C 6.628906 15.414062 6.640625 15.375 6.65625 15.335938 C 6.675781 15.296875 6.691406 15.257812 6.71875 15.21875 C 6.8125 14.949219 6.8125 14.734375 6.644531 14.605469 C 6.613281 14.582031 6.578125 14.5625 6.542969 14.546875 C 6.519531 14.542969 6.492188 14.53125 6.472656 14.527344 C 6.457031 14.519531 6.445312 14.515625 6.429688 14.507812 C 6.390625 14.5 6.355469 14.488281 6.316406 14.480469 C 6.277344 14.472656 6.242188 14.464844 6.203125 14.464844 C 6.164062 14.460938 6.121094 14.453125 6.085938 14.453125 C 6.058594 14.453125 6.03125 14.460938 6.003906 14.460938 C 5.960938 14.460938 5.921875 14.464844 5.886719 14.476562 C 5.847656 14.480469 5.808594 14.488281 5.773438 14.5 C 5.734375 14.507812 5.695312 14.519531 5.660156 14.539062 C 5.621094 14.554688 5.589844 14.570312 5.550781 14.585938 C 5.519531 14.605469 5.484375 14.625 5.449219 14.644531 C 4.191406 15.492188 4.941406 17.476562 5.796875 18.050781 C 5.476562 18.113281 5.144531 18.1875 5.054688 18.257812 L 5.042969 18.269531 C 5.277344 18.414062 5.519531 18.539062 5.773438 18.644531 C 6.117188 18.761719 6.484375 18.867188 6.644531 18.910156 L 6.644531 18.917969 C 7.089844 19.011719 7.546875 19.046875 8.003906 19.015625 C 10.390625 18.84375 12.347656 16.964844 12.703125 14.488281 C 12.710938 14.539062 12.722656 14.582031 12.734375 14.632812 C 12.75 14.734375 12.773438 14.839844 12.78125 14.945312 L 12.78125 14.949219 C 12.792969 15 12.796875 15.050781 12.804688 15.09375 L 12.804688 15.117188 C 12.808594 15.167969 12.816406 15.21875 12.816406 15.261719 C 12.820312 15.324219 12.824219 15.386719 12.824219 15.445312 L 12.824219 15.535156 C 12.824219 15.5625 12.832031 15.597656 12.832031 15.625 C 12.832031 15.660156 12.824219 15.691406 12.824219 15.726562 L 12.824219 15.804688 C 12.824219 15.84375 12.820312 15.875 12.820312 15.914062 C 12.820312 15.9375 12.820312 15.960938 12.816406 15.988281 C 12.816406 16.027344 12.808594 16.066406 12.808594 16.109375 C 12.804688 16.128906 12.804688 16.144531 12.804688 16.160156 C 12.796875 16.207031 12.792969 16.246094 12.789062 16.289062 C 12.789062 16.304688 12.789062 16.324219 12.78125 16.339844 C 12.777344 16.394531 12.765625 16.445312 12.761719 16.5 L 12.761719 16.511719 C 12.75 16.5625 12.738281 16.617188 12.730469 16.667969 L 12.730469 16.683594 L 12.695312 16.835938 C 12.695312 16.839844 12.691406 16.851562 12.691406 16.859375 C 12.679688 16.910156 12.667969 16.957031 12.652344 17.007812 L 12.652344 17.027344 C 12.636719 17.082031 12.621094 17.132812 12.609375 17.183594 C 12.605469 17.1875 12.605469 17.191406 12.605469 17.191406 L 12.554688 17.359375 C 12.535156 17.417969 12.519531 17.464844 12.496094 17.523438 C 12.476562 17.578125 12.460938 17.632812 12.4375 17.683594 C 12.417969 17.738281 12.394531 17.789062 12.371094 17.84375 L 12.367188 17.84375 C 12.347656 17.894531 12.324219 17.953125 12.296875 18.003906 C 12.292969 18.019531 12.285156 18.03125 12.28125 18.039062 C 12.277344 18.046875 12.277344 18.050781 12.269531 18.058594 C 11.921875 18.789062 11.402344 19.429688 10.757812 19.933594 C 10.714844 19.960938 10.671875 19.992188 10.628906 20.027344 C 10.617188 20.039062 10.601562 20.042969 10.589844 20.054688 C 10.550781 20.082031 10.515625 20.109375 10.472656 20.136719 L 10.488281 20.171875 L 10.492188 20.171875 L 10.71875 20.136719 L 10.722656 20.136719 C 10.863281 20.117188 11.003906 20.089844 11.144531 20.058594 C 11.183594 20.054688 11.226562 20.042969 11.261719 20.03125 C 11.289062 20.027344 11.3125 20.019531 11.339844 20.015625 C 11.375 20.011719 11.414062 20 11.453125 19.992188 C 11.484375 19.980469 11.515625 19.976562 11.546875 19.964844 C 12.085938 19.832031 12.609375 19.648438 13.113281 19.429688 C 12.253906 20.640625 11.105469 21.617188 9.765625 22.257812 C 10.382812 22.214844 11.003906 22.109375 11.601562 21.929688 C 13.773438 21.265625 15.601562 19.753906 16.695312 17.71875 C 16.472656 19.007812 15.976562 20.234375 15.246094 21.304688 C 15.769531 20.949219 16.25 20.53125 16.683594 20.066406 C 17.890625 18.761719 18.683594 17.105469 18.953125 15.324219 C 19.136719 16.207031 19.191406 17.113281 19.109375 18.011719 C 23 12.394531 19.433594 6.570312 17.941406 5.039062 C 17.933594 5.027344 17.929688 5.019531 17.929688 5.007812 C 17.921875 5.015625 17.921875 5.015625 17.921875 5.019531 C 17.921875 5.015625 17.921875 5.015625 17.917969 5.007812 C 17.917969 5.078125 17.914062 5.144531 17.90625 5.210938 C 17.890625 5.339844 17.875 5.460938 17.855469 5.582031 C 17.828125 5.707031 17.792969 5.828125 17.761719 5.953125 C 17.722656 6.074219 17.679688 6.191406 17.632812 6.308594 C 17.582031 6.425781 17.527344 6.539062 17.472656 6.648438 C 17.410156 6.753906 17.347656 6.867188 17.277344 6.96875 C 17.207031 7.070312 17.132812 7.171875 17.054688 7.269531 C 16.976562 7.367188 16.890625 7.457031 16.804688 7.546875 C 16.753906 7.59375 16.699219 7.640625 16.644531 7.6875 C 16.601562 7.726562 16.566406 7.757812 16.523438 7.796875 C 16.425781 7.875 16.328125 7.949219 16.222656 8.015625 C 16.117188 8.082031 16.011719 8.148438 15.902344 8.207031 C 15.789062 8.261719 15.675781 8.3125 15.5625 8.363281 C 15.449219 8.40625 15.332031 8.445312 15.214844 8.480469 C 15.09375 8.511719 14.972656 8.539062 14.851562 8.5625 C 14.726562 8.585938 14.605469 8.597656 14.484375 8.609375 C 14.398438 8.613281 14.3125 8.617188 14.226562 8.617188 C 14.101562 8.617188 13.980469 8.609375 13.859375 8.597656 C 13.738281 8.585938 13.613281 8.570312 13.492188 8.539062 C 13.371094 8.519531 13.25 8.484375 13.132812 8.445312 L 13.128906 8.445312 C 13.246094 8.433594 13.363281 8.421875 13.484375 8.402344 C 13.605469 8.378906 13.726562 8.351562 13.84375 8.316406 C 13.960938 8.285156 14.078125 8.246094 14.195312 8.199219 C 14.3125 8.15625 14.425781 8.101562 14.535156 8.042969 C 14.648438 7.988281 14.75 7.925781 14.855469 7.859375 C 14.960938 7.789062 15.0625 7.714844 15.160156 7.636719 C 15.253906 7.558594 15.347656 7.476562 15.433594 7.386719 C 15.527344 7.300781 15.605469 7.207031 15.6875 7.113281 C 15.765625 7.015625 15.839844 6.914062 15.914062 6.8125 C 15.925781 6.792969 15.933594 6.773438 15.945312 6.753906 C 16 6.667969 16.054688 6.578125 16.101562 6.488281 C 16.160156 6.378906 16.214844 6.261719 16.265625 6.148438 C 16.3125 6.03125 16.355469 5.910156 16.394531 5.789062 C 16.429688 5.671875 16.457031 5.550781 16.484375 5.425781 C 16.507812 5.300781 16.527344 5.175781 16.539062 5.054688 C 16.550781 4.925781 16.558594 4.796875 16.558594 4.675781 C 16.558594 4.585938 16.554688 4.496094 16.550781 4.40625 C 16.539062 4.277344 16.523438 4.15625 16.507812 4.03125 C 16.484375 3.90625 16.457031 3.78125 16.425781 3.660156 C 16.386719 3.542969 16.351562 3.417969 16.308594 3.300781 C 16.265625 3.183594 16.210938 3.066406 16.15625 2.957031 C 16.097656 2.84375 16.039062 2.734375 15.972656 2.628906 C 15.902344 2.523438 15.832031 2.421875 15.757812 2.320312 C 15.675781 2.222656 15.59375 2.128906 15.507812 2.035156 C 15.464844 1.988281 15.417969 1.941406 15.371094 1.894531 C 15.128906 1.703125 14.878906 1.519531 14.621094 1.351562 C 14.582031 1.328125 14.550781 1.3125 14.511719 1.292969 C 14.335938 1.175781 14.167969 1.117188 14 1.058594 Z M 14 1.058594 "/>
</g>
</svg>
