<?xml version="1.0" encoding="UTF-8"?>
<svg xmlns="http://www.w3.org/2000/svg" xmlns:xlink="http://www.w3.org/1999/xlink" width="24px" height="px" viewBox="0 0 24 24" version="1.1">
<g id="surface1">
<path style=" stroke:none;fill-rule:nonzero;fill:rgb(0%,0%,0%);fill-opacity:1;" d="M 11.214844 0.0195312 C 11.164062 0.0234375 11 0.0390625 10.851562 0.0507812 C 7.445312 0.359375 4.257812 2.195312 2.238281 5.019531 C 1.113281 6.589844 0.390625 8.371094 0.121094 10.257812 C 0.0234375 10.917969 0.0117188 11.109375 0.0117188 12.003906 C 0.0117188 12.894531 0.0234375 13.089844 0.121094 13.75 C 0.773438 18.25 3.976562 22.035156 8.320312 23.433594 C 9.097656 23.6875 9.917969 23.855469 10.851562 23.960938 C 11.214844 24 12.785156 24 13.148438 23.960938 C 14.757812 23.78125 16.121094 23.382812 17.46875 22.695312 C 17.671875 22.589844 17.714844 22.5625 17.683594 22.539062 C 17.667969 22.527344 16.789062 21.347656 15.734375 19.921875 L 13.816406 17.332031 L 11.414062 13.777344 C 10.09375 11.824219 9.003906 10.226562 8.996094 10.226562 C 8.984375 10.222656 8.976562 11.800781 8.972656 13.730469 C 8.964844 17.109375 8.960938 17.242188 8.921875 17.324219 C 8.859375 17.4375 8.8125 17.484375 8.714844 17.535156 C 8.640625 17.574219 8.574219 17.582031 8.21875 17.582031 L 7.816406 17.582031 L 7.707031 17.511719 C 7.636719 17.46875 7.585938 17.410156 7.550781 17.34375 L 7.5 17.238281 L 7.503906 12.539062 L 7.511719 7.835938 L 7.585938 7.746094 C 7.621094 7.695312 7.703125 7.632812 7.757812 7.601562 C 7.855469 7.554688 7.890625 7.550781 8.296875 7.550781 C 8.773438 7.550781 8.855469 7.570312 8.980469 7.707031 C 9.015625 7.742188 10.316406 9.703125 11.871094 12.0625 C 13.425781 14.421875 15.554688 17.644531 16.601562 19.226562 L 18.5 22.101562 L 18.59375 22.039062 C 19.445312 21.484375 20.34375 20.699219 21.058594 19.878906 C 22.574219 18.136719 23.550781 16.011719 23.878906 13.75 C 23.976562 13.089844 23.988281 12.894531 23.988281 12.003906 C 23.988281 11.109375 23.976562 10.917969 23.878906 10.257812 C 23.226562 5.753906 20.023438 1.972656 15.679688 0.570312 C 14.914062 0.324219 14.097656 0.152344 13.183594 0.0507812 C 12.957031 0.0273438 11.410156 0 11.214844 0.0195312 Z M 16.121094 7.269531 C 16.234375 7.324219 16.324219 7.433594 16.359375 7.546875 C 16.378906 7.605469 16.382812 8.910156 16.378906 11.847656 L 16.371094 16.058594 L 15.628906 14.921875 L 14.882812 13.78125 L 14.882812 10.71875 C 14.882812 8.738281 14.890625 7.625 14.90625 7.570312 C 14.945312 7.441406 15.027344 7.335938 15.136719 7.277344 C 15.234375 7.226562 15.269531 7.222656 15.636719 7.222656 C 15.984375 7.222656 16.042969 7.226562 16.121094 7.269531 Z M 16.121094 7.269531 "/>
<path style=" stroke:none;fill-rule:nonzero;fill:rgb(0%,0%,0%);fill-opacity:1;" d="M 18.382812 22.152344 C 18.300781 22.203125 18.273438 22.238281 18.347656 22.199219 C 18.398438 22.167969 18.480469 22.105469 18.46875 22.105469 C 18.460938 22.105469 18.421875 22.128906 18.382812 22.152344 Z M 18.21875 22.257812 C 18.175781 22.292969 18.175781 22.292969 18.230469 22.269531 C 18.257812 22.253906 18.28125 22.238281 18.28125 22.234375 C 18.28125 22.214844 18.269531 22.21875 18.21875 22.257812 Z M 18.101562 22.328125 C 18.058594 22.363281 18.058594 22.363281 18.113281 22.339844 C 18.140625 22.324219 18.164062 22.308594 18.164062 22.304688 C 18.164062 22.285156 18.152344 22.289062 18.101562 22.328125 Z M 17.984375 22.398438 C 17.941406 22.433594 17.941406 22.433594 17.996094 22.410156 C 18.023438 22.394531 18.046875 22.378906 18.046875 22.375 C 18.046875 22.355469 18.035156 22.359375 17.984375 22.398438 Z M 17.808594 22.492188 C 17.71875 22.539062 17.722656 22.558594 17.8125 22.515625 C 17.851562 22.492188 17.882812 22.472656 17.882812 22.46875 C 17.882812 22.449219 17.878906 22.453125 17.808594 22.492188 Z M 17.808594 22.492188 "/>
</g>
</svg>
