<?xml version="1.0" encoding="UTF-8"?>
<svg xmlns="http://www.w3.org/2000/svg" xmlns:xlink="http://www.w3.org/1999/xlink" width="24px" height="px" viewBox="0 0 24 24" version="1.1">
<g id="surface1">
<path style=" stroke:none;fill-rule:nonzero;fill:rgb(0.392157%,58.823529%,22.352941%);fill-opacity:1;" d="M 11.960938 1.5 L 12.007812 1.5 C 12.257812 1.617188 12.503906 1.75 12.738281 1.894531 C 15.453125 3.457031 18.167969 5.019531 20.882812 6.582031 C 21.097656 6.695312 21.21875 6.929688 21.191406 7.171875 C 21.1875 10.464844 21.191406 13.753906 21.1875 17.042969 C 21.152344 17.203125 21.058594 17.339844 20.921875 17.425781 C 18.035156 19.085938 15.148438 20.746094 12.261719 22.40625 C 12.117188 22.515625 11.921875 22.527344 11.769531 22.433594 C 8.878906 20.777344 5.992188 19.117188 3.105469 17.457031 C 2.914062 17.363281 2.796875 17.167969 2.808594 16.957031 C 2.808594 13.664062 2.808594 10.375 2.808594 7.082031 C 2.792969 6.871094 2.90625 6.675781 3.097656 6.582031 C 5.808594 5.023438 8.519531 3.460938 11.230469 1.902344 C 11.472656 1.761719 11.710938 1.617188 11.960938 1.5 "/>
<path style=" stroke:none;fill-rule:nonzero;fill:rgb(100%,100%,100%);fill-opacity:1;" d="M 6.574219 7.902344 C 6.574219 10.617188 6.574219 13.332031 6.574219 16.046875 C 6.566406 16.351562 6.683594 16.644531 6.894531 16.863281 C 7.308594 17.273438 7.953125 17.335938 8.441406 17.015625 C 8.761719 16.800781 8.953125 16.4375 8.953125 16.046875 C 8.953125 14.082031 8.949219 12.117188 8.953125 10.152344 C 10.746094 12.296875 12.539062 14.441406 14.339844 16.578125 C 14.847656 17.09375 15.582031 17.3125 16.289062 17.164062 C 16.792969 17.066406 17.175781 16.648438 17.226562 16.136719 C 17.230469 13.367188 17.230469 10.597656 17.226562 7.828125 C 17.175781 7.214844 16.660156 6.742188 16.046875 6.742188 C 15.429688 6.742188 14.917969 7.214844 14.863281 7.828125 C 14.863281 9.824219 14.851562 11.816406 14.863281 13.8125 C 13.105469 11.738281 11.367188 9.644531 9.613281 7.5625 C 9.144531 6.960938 8.382812 6.660156 7.628906 6.773438 C 7.046875 6.839844 6.597656 7.320312 6.574219 7.902344 Z M 6.574219 7.902344 "/>
</g>
</svg>
