<?xml version="1.0" encoding="UTF-8"?>
<svg xmlns="http://www.w3.org/2000/svg" xmlns:xlink="http://www.w3.org/1999/xlink" width="24px" height="px" viewBox="0 0 24 27" version="1.1">
<g id="surface1">
<path style=" stroke:none;fill-rule:nonzero;fill:rgb(32.54902%,61.960784%,26.27451%);fill-opacity:1;" d="M 12 26.949219 C 11.628906 26.949219 11.28125 26.851562 10.957031 26.675781 L 7.652344 24.722656 C 7.15625 24.449219 7.402344 24.351562 7.554688 24.300781 C 8.222656 24.078125 8.347656 24.027344 9.042969 23.632812 C 9.117188 23.582031 9.21875 23.609375 9.292969 23.65625 L 11.824219 25.167969 C 11.925781 25.214844 12.050781 25.214844 12.125 25.167969 L 22.039062 19.449219 C 22.136719 19.398438 22.1875 19.300781 22.1875 19.175781 L 22.1875 7.761719 C 22.1875 7.636719 22.136719 7.539062 22.039062 7.488281 L 12.125 1.796875 C 12.023438 1.746094 11.902344 1.746094 11.824219 1.796875 L 1.914062 7.488281 C 1.8125 7.539062 1.765625 7.664062 1.765625 7.761719 L 1.765625 19.175781 C 1.765625 19.273438 1.8125 19.398438 1.914062 19.449219 L 4.621094 21.007812 C 6.085938 21.75 7.007812 20.882812 7.007812 20.015625 L 7.007812 8.753906 C 7.007812 8.605469 7.128906 8.457031 7.304688 8.457031 L 8.570312 8.457031 C 8.71875 8.457031 8.871094 8.578125 8.871094 8.753906 L 8.871094 20.015625 C 8.871094 21.972656 7.800781 23.113281 5.9375 23.113281 C 5.367188 23.113281 4.917969 23.113281 3.652344 22.492188 L 1.042969 21.007812 C 0.398438 20.636719 0 19.941406 0 19.199219 L 0 7.785156 C 0 7.042969 0.398438 6.351562 1.042969 5.980469 L 10.957031 0.261719 C 11.578125 -0.0859375 12.421875 -0.0859375 13.042969 0.261719 L 22.957031 5.980469 C 23.601562 6.351562 24 7.042969 24 7.785156 L 24 19.199219 C 24 19.941406 23.601562 20.636719 22.957031 21.007812 L 13.042969 26.726562 C 12.71875 26.875 12.347656 26.949219 12 26.949219 Z M 15.054688 19.101562 C 10.707031 19.101562 9.8125 17.121094 9.8125 15.4375 C 9.8125 15.289062 9.9375 15.140625 10.113281 15.140625 L 11.402344 15.140625 C 11.554688 15.140625 11.675781 15.238281 11.675781 15.386719 C 11.875 16.699219 12.445312 17.34375 15.082031 17.34375 C 17.167969 17.34375 18.0625 16.875 18.0625 15.757812 C 18.0625 15.113281 17.8125 14.644531 14.558594 14.324219 C 11.851562 14.050781 10.160156 13.457031 10.160156 11.300781 C 10.160156 9.296875 11.851562 8.109375 14.683594 8.109375 C 17.863281 8.109375 19.429688 9.199219 19.628906 11.574219 C 19.628906 11.648438 19.601562 11.722656 19.554688 11.796875 C 19.503906 11.847656 19.429688 11.898438 19.355469 11.898438 L 18.0625 11.898438 C 17.9375 11.898438 17.8125 11.796875 17.789062 11.671875 C 17.492188 10.3125 16.71875 9.867188 14.683594 9.867188 C 12.398438 9.867188 12.125 10.660156 12.125 11.253906 C 12.125 11.972656 12.445312 12.195312 15.527344 12.589844 C 18.582031 12.984375 20.023438 13.554688 20.023438 15.683594 C 20 17.863281 18.210938 19.101562 15.054688 19.101562 Z M 15.054688 19.101562 "/>
</g>
</svg>
