<?xml version="1.0" encoding="UTF-8"?>
<svg xmlns="http://www.w3.org/2000/svg" xmlns:xlink="http://www.w3.org/1999/xlink" width="24px" height="24px" viewBox="0 0 24 24" version="1.1">
<g id="surface1">
<path style=" stroke:none;fill-rule:evenodd;fill:rgb(100%,0%,0%);fill-opacity:1;" d="M 7.957031 18.914062 C 4.117188 18.914062 1 15.804688 1 11.960938 C 1 8.121094 4.117188 5 7.957031 5 L 16.042969 5 C 19.886719 5 23 8.121094 23 11.960938 C 23 15.804688 19.886719 18.914062 16.042969 18.914062 Z M 15.863281 16.457031 C 18.351562 16.457031 20.367188 14.449219 20.367188 11.960938 C 20.367188 9.472656 18.351562 7.453125 15.863281 7.453125 L 8.136719 7.453125 C 5.648438 7.453125 3.632812 9.472656 3.632812 11.960938 C 3.632812 14.449219 5.648438 16.457031 8.136719 16.457031 Z M 15.863281 16.457031 "/>
</g>
</svg>
