<?xml version="1.0" encoding="UTF-8"?>
<svg xmlns="http://www.w3.org/2000/svg" xmlns:xlink="http://www.w3.org/1999/xlink" width="24px" height="px" viewBox="0 0 24 24" version="1.1">
<g id="surface1">
<path style=" stroke:none;fill-rule:nonzero;fill:rgb(0%,0%,0%);fill-opacity:1;" d="M 23.90625 14.371094 C 23.761719 13.949219 23.386719 13.652344 22.898438 13.582031 C 22.667969 13.550781 22.40625 13.5625 22.09375 13.625 C 21.550781 13.734375 21.148438 13.777344 20.855469 13.785156 C 21.964844 11.96875 22.867188 9.894531 23.386719 7.945312 C 24.226562 4.792969 23.777344 3.355469 23.253906 2.707031 C 21.863281 0.984375 19.839844 0.0625 17.394531 0.0351562 C 16.09375 0.0195312 14.949219 0.269531 14.351562 0.449219 C 13.796875 0.351562 13.199219 0.300781 12.570312 0.289062 C 11.394531 0.269531 10.355469 0.519531 9.46875 1.03125 C 8.976562 0.867188 8.191406 0.640625 7.28125 0.496094 C 5.136719 0.15625 3.410156 0.421875 2.148438 1.285156 C 0.621094 2.332031 -0.0859375 4.152344 0.0429688 6.691406 C 0.0859375 7.5 0.550781 9.953125 1.28125 12.28125 C 1.703125 13.621094 2.152344 14.730469 2.617188 15.585938 C 3.277344 16.792969 3.980469 17.507812 4.773438 17.761719 C 5.214844 17.90625 6.023438 18.007812 6.871094 17.324219 C 6.976562 17.449219 7.121094 17.574219 7.3125 17.691406 C 7.550781 17.839844 7.847656 17.957031 8.144531 18.03125 C 9.207031 18.289062 10.203125 18.222656 11.050781 17.863281 C 11.058594 18.007812 11.0625 18.148438 11.0625 18.269531 C 11.070312 18.464844 11.074219 18.65625 11.082031 18.839844 C 11.132812 20.054688 11.21875 21 11.472656 21.660156 C 11.484375 21.695312 11.503906 21.753906 11.523438 21.8125 C 11.648438 22.183594 11.859375 22.8125 12.398438 23.300781 C 12.953125 23.8125 13.625 23.96875 14.238281 23.96875 C 14.546875 23.96875 14.84375 23.925781 15.101562 23.875 C 16.023438 23.683594 17.066406 23.390625 17.824219 22.347656 C 18.539062 21.359375 18.886719 19.871094 18.949219 17.53125 C 18.957031 17.464844 18.964844 17.402344 18.972656 17.339844 L 18.988281 17.214844 L 19.15625 17.230469 L 19.199219 17.234375 C 20.136719 17.273438 21.285156 17.082031 21.988281 16.765625 C 22.542969 16.515625 24.328125 15.601562 23.90625 14.371094 "/>
<path style=" stroke:none;fill-rule:nonzero;fill:rgb(20%,40.392157%,56.862745%);fill-opacity:1;" d="M 22.304688 14.609375 C 19.515625 15.167969 19.324219 14.253906 19.324219 14.253906 C 22.269531 10.015625 23.5 4.640625 22.4375 3.324219 C 19.539062 -0.265625 14.523438 1.433594 14.441406 1.476562 L 14.414062 1.480469 C 13.863281 1.371094 13.246094 1.304688 12.554688 1.292969 C 11.292969 1.273438 10.335938 1.613281 9.609375 2.148438 C 9.609375 2.148438 0.660156 -1.425781 1.078125 6.644531 C 1.167969 8.359375 3.617188 19.628906 6.535156 16.226562 C 7.601562 14.980469 8.636719 13.929688 8.636719 13.929688 C 9.148438 14.257812 9.761719 14.425781 10.402344 14.367188 L 10.453125 14.324219 C 10.4375 14.480469 10.445312 14.632812 10.472656 14.808594 C 9.722656 15.625 9.941406 15.769531 8.4375 16.070312 C 6.917969 16.371094 7.808594 16.914062 8.394531 17.054688 C 9.101562 17.226562 10.738281 17.46875 11.84375 15.96875 L 11.800781 16.140625 C 12.097656 16.367188 12.304688 17.628906 12.269531 18.773438 C 12.234375 19.914062 12.210938 20.699219 12.441406 21.3125 C 12.675781 21.921875 12.90625 23.300781 14.882812 22.890625 C 16.535156 22.546875 17.390625 21.660156 17.511719 20.175781 C 17.597656 19.121094 17.785156 19.277344 17.800781 18.332031 L 17.953125 17.886719 C 18.128906 16.457031 17.980469 15.996094 19 16.207031 L 19.246094 16.230469 C 19.996094 16.261719 20.976562 16.113281 21.550781 15.855469 C 22.789062 15.296875 23.527344 14.363281 22.304688 14.609375 "/>
<path style=" stroke:none;fill-rule:nonzero;fill:rgb(100%,100%,100%);fill-opacity:1;" d="M 10.132812 7.410156 C 9.882812 7.375 9.652344 7.40625 9.539062 7.492188 C 9.472656 7.539062 9.453125 7.59375 9.449219 7.632812 C 9.433594 7.734375 9.507812 7.84375 9.550781 7.902344 C 9.675781 8.0625 9.859375 8.175781 10.042969 8.199219 C 10.070312 8.203125 10.097656 8.207031 10.121094 8.207031 C 10.425781 8.207031 10.703125 7.976562 10.726562 7.804688 C 10.757812 7.59375 10.441406 7.453125 10.132812 7.410156 M 18.457031 7.417969 C 18.429688 7.25 18.125 7.203125 17.835938 7.242188 C 17.546875 7.28125 17.265625 7.410156 17.289062 7.574219 C 17.308594 7.703125 17.550781 7.925781 17.835938 7.925781 C 17.859375 7.925781 17.882812 7.925781 17.910156 7.921875 C 18.101562 7.894531 18.238281 7.777344 18.304688 7.710938 C 18.40625 7.605469 18.464844 7.492188 18.457031 7.417969 "/>
<path style=" stroke:none;fill-rule:nonzero;fill:rgb(100%,100%,100%);fill-opacity:1;" d="M 23.230469 14.546875 C 23.125 14.234375 22.78125 14.132812 22.214844 14.25 C 20.527344 14.585938 19.921875 14.351562 19.722656 14.210938 C 21.035156 12.273438 22.113281 9.929688 22.695312 7.742188 C 22.972656 6.707031 23.125 5.746094 23.136719 4.964844 C 23.152344 4.101562 23 3.472656 22.6875 3.085938 C 21.433594 1.527344 19.589844 0.691406 17.355469 0.671875 C 15.820312 0.652344 14.523438 1.035156 14.273438 1.140625 C 13.746094 1.015625 13.167969 0.933594 12.539062 0.925781 C 11.386719 0.90625 10.390625 1.175781 9.566406 1.71875 C 9.207031 1.589844 8.28125 1.28125 7.152344 1.105469 C 5.195312 0.800781 3.640625 1.03125 2.53125 1.792969 C 1.207031 2.703125 0.59375 4.328125 0.714844 6.625 C 0.753906 7.398438 1.207031 9.777344 1.921875 12.050781 C 2.867188 15.050781 3.890625 16.746094 4.972656 17.09375 C 5.097656 17.136719 5.242188 17.164062 5.402344 17.164062 C 5.796875 17.164062 6.28125 16.992188 6.78125 16.40625 C 7.394531 15.695312 8.027344 15 8.679688 14.324219 C 9.105469 14.542969 9.570312 14.667969 10.046875 14.679688 C 10.050781 14.691406 10.050781 14.703125 10.050781 14.714844 C 9.96875 14.808594 9.890625 14.90625 9.808594 15.003906 C 9.480469 15.410156 9.410156 15.496094 8.347656 15.707031 C 8.046875 15.765625 7.242188 15.929688 7.230469 16.472656 C 7.21875 17.070312 8.179688 17.320312 8.289062 17.347656 C 8.671875 17.441406 9.039062 17.484375 9.390625 17.484375 C 10.246094 17.484375 10.996094 17.214844 11.597656 16.6875 C 11.578125 18.8125 11.667969 20.90625 11.933594 21.546875 C 12.148438 22.066406 12.675781 23.34375 14.339844 23.34375 C 14.582031 23.34375 14.851562 23.316406 15.144531 23.257812 C 16.882812 22.894531 17.636719 22.152344 17.929688 20.511719 C 18.085938 19.632812 18.351562 17.539062 18.476562 16.417969 C 18.746094 16.496094 19.085938 16.535156 19.457031 16.535156 C 20.226562 16.535156 21.117188 16.375 21.675781 16.125 C 22.304688 15.839844 23.4375 15.148438 23.230469 14.546875 Z M 19.097656 6.957031 C 19.089844 7.289062 19.042969 7.589844 18.992188 7.90625 C 18.941406 8.242188 18.882812 8.589844 18.871094 9.015625 C 18.855469 9.429688 18.910156 9.859375 18.960938 10.273438 C 19.066406 11.109375 19.171875 11.972656 18.757812 12.824219 C 18.691406 12.707031 18.628906 12.585938 18.578125 12.460938 C 18.523438 12.339844 18.414062 12.144531 18.257812 11.878906 C 17.660156 10.835938 16.253906 8.390625 16.972656 7.394531 C 17.1875 7.097656 17.730469 6.792969 19.097656 6.957031 Z M 17.441406 1.339844 C 19.441406 1.382812 21.023438 2.109375 22.144531 3.496094 C 23.003906 4.5625 22.058594 9.40625 19.320312 13.585938 C 19.292969 13.550781 19.265625 13.515625 19.234375 13.484375 L 19.203125 13.441406 C 19.910156 12.308594 19.769531 11.1875 19.648438 10.191406 C 19.597656 9.785156 19.550781 9.398438 19.5625 9.039062 C 19.574219 8.652344 19.625 8.324219 19.675781 8.007812 C 19.738281 7.613281 19.800781 7.207031 19.785156 6.730469 C 19.796875 6.679688 19.804688 6.621094 19.796875 6.550781 C 19.75 6.09375 19.210938 4.71875 18.109375 3.476562 C 17.507812 2.796875 16.632812 2.039062 15.433594 1.523438 C 15.949219 1.421875 16.652344 1.324219 17.441406 1.339844 Z M 6.25 15.976562 C 5.699219 16.625 5.316406 16.5 5.191406 16.457031 C 4.371094 16.195312 3.421875 14.515625 2.585938 11.855469 C 1.859375 9.554688 1.4375 7.242188 1.402344 6.59375 C 1.296875 4.539062 1.808594 3.109375 2.929688 2.339844 C 4.746094 1.089844 7.738281 1.839844 8.941406 2.21875 C 8.921875 2.234375 8.90625 2.25 8.886719 2.269531 C 6.914062 4.199219 6.960938 7.5 6.96875 7.699219 C 6.96875 7.777344 6.972656 7.886719 6.984375 8.039062 C 7.015625 8.59375 7.082031 9.628906 6.910156 10.796875 C 6.753906 11.882812 7.101562 12.949219 7.859375 13.714844 C 7.9375 13.792969 8.019531 13.867188 8.105469 13.941406 C 7.765625 14.289062 7.03125 15.066406 6.25 15.976562 Z M 8.359375 13.25 C 7.746094 12.632812 7.46875 11.773438 7.59375 10.890625 C 7.773438 9.652344 7.707031 8.578125 7.671875 8 C 7.667969 7.917969 7.664062 7.847656 7.660156 7.792969 C 7.949219 7.542969 9.285156 6.851562 10.234375 7.0625 C 10.671875 7.160156 10.933594 7.445312 11.046875 7.9375 C 11.613281 10.492188 11.121094 11.558594 10.722656 12.414062 C 10.640625 12.589844 10.5625 12.757812 10.5 12.929688 L 10.445312 13.0625 C 10.316406 13.398438 10.195312 13.710938 10.121094 14.011719 C 9.472656 14.007812 8.839844 13.738281 8.359375 13.25 Z M 8.457031 16.695312 C 8.269531 16.652344 8.097656 16.570312 7.996094 16.503906 C 8.082031 16.464844 8.230469 16.414062 8.488281 16.363281 C 9.738281 16.113281 9.929688 15.9375 10.351562 15.417969 C 10.449219 15.300781 10.558594 15.164062 10.710938 15 C 10.9375 14.753906 11.039062 14.796875 11.226562 14.871094 C 11.378906 14.933594 11.527344 15.117188 11.589844 15.320312 C 11.617188 15.417969 11.648438 15.597656 11.542969 15.738281 C 10.664062 16.9375 9.378906 16.921875 8.457031 16.695312 Z M 15 22.601562 C 13.472656 22.917969 12.929688 22.164062 12.574219 21.296875 C 12.34375 20.738281 12.230469 18.21875 12.308594 15.4375 C 12.3125 15.402344 12.304688 15.367188 12.296875 15.332031 C 12.285156 15.265625 12.273438 15.199219 12.253906 15.136719 C 12.132812 14.730469 11.84375 14.394531 11.492188 14.253906 C 11.355469 14.195312 11.097656 14.09375 10.792969 14.171875 C 10.859375 13.910156 10.972656 13.613281 11.09375 13.296875 L 11.144531 13.164062 C 11.203125 13.011719 11.277344 12.855469 11.355469 12.6875 C 11.769531 11.792969 12.339844 10.566406 11.71875 7.796875 C 11.488281 6.761719 10.714844 6.253906 9.546875 6.371094 C 8.84375 6.441406 8.199219 6.714844 7.878906 6.875 C 7.8125 6.90625 7.75 6.941406 7.6875 6.972656 C 7.777344 5.925781 8.117188 3.972656 9.378906 2.738281 C 10.175781 1.957031 11.234375 1.574219 12.527344 1.59375 C 15.070312 1.636719 16.703125 2.902344 17.625 3.957031 C 18.417969 4.867188 18.847656 5.78125 19.019531 6.277344 C 17.730469 6.148438 16.851562 6.394531 16.40625 7.011719 C 15.441406 8.351562 16.9375 10.953125 17.65625 12.203125 C 17.789062 12.433594 17.902344 12.632812 17.9375 12.714844 C 18.171875 13.265625 18.476562 13.632812 18.695312 13.902344 C 18.765625 13.984375 18.832031 14.0625 18.878906 14.132812 C 18.488281 14.242188 17.789062 14.496094 17.851562 15.753906 C 17.800781 16.386719 17.433594 19.351562 17.246094 20.398438 C 17 21.78125 16.476562 22.292969 15 22.601562 Z M 21.386719 15.515625 C 20.988281 15.695312 20.320312 15.832031 19.683594 15.859375 C 18.984375 15.890625 18.625 15.785156 18.542969 15.71875 C 18.503906 14.933594 18.804688 14.851562 19.121094 14.761719 C 19.171875 14.75 19.222656 14.734375 19.269531 14.71875 C 19.296875 14.742188 19.332031 14.765625 19.367188 14.789062 C 19.929688 15.148438 20.933594 15.1875 22.355469 14.902344 L 22.371094 14.902344 C 22.179688 15.074219 21.851562 15.308594 21.386719 15.515625 Z M 21.386719 15.515625 "/>
</g>
</svg>
