<?xml version="1.0" encoding="UTF-8"?>
<svg xmlns="http://www.w3.org/2000/svg" xmlns:xlink="http://www.w3.org/1999/xlink" width="24px" height="px" viewBox="0 0 24 21" version="1.1">
<g id="surface1">
<path style=" stroke:none;fill-rule:nonzero;fill:rgb(56.862745%,14.901961%,14.901961%);fill-opacity:1;" d="M 23.054688 16.125 C 21.773438 16.804688 15.140625 19.582031 13.730469 20.332031 C 12.316406 21.082031 11.53125 21.078125 10.417969 20.53125 C 9.300781 19.988281 2.242188 17.085938 0.96875 16.46875 C 0.335938 16.15625 0 15.898438 0 15.648438 L 0 13.179688 C 0 13.179688 9.191406 11.140625 10.675781 10.601562 C 12.15625 10.058594 12.671875 10.039062 13.933594 10.507812 C 15.199219 10.980469 22.746094 12.367188 23.996094 12.832031 L 23.996094 15.269531 C 23.996094 15.511719 23.707031 15.78125 23.054688 16.125 "/>
<path style=" stroke:none;fill-rule:nonzero;fill:rgb(77.647059%,18.823529%,16.862745%);fill-opacity:1;" d="M 23.054688 13.671875 C 21.773438 14.351562 15.140625 17.128906 13.726562 17.878906 C 12.316406 18.628906 11.53125 18.621094 10.417969 18.078125 C 9.300781 17.535156 2.242188 14.628906 0.96875 14.011719 C -0.300781 13.390625 -0.328125 12.964844 0.921875 12.46875 C 2.171875 11.96875 9.191406 9.164062 10.675781 8.625 C 12.15625 8.082031 12.671875 8.0625 13.933594 8.53125 C 15.199219 9.003906 21.792969 11.675781 23.039062 12.140625 C 24.285156 12.609375 24.335938 12.992188 23.054688 13.671875 "/>
<path style=" stroke:none;fill-rule:nonzero;fill:rgb(56.862745%,14.901961%,14.901961%);fill-opacity:1;" d="M 23.054688 12.128906 C 21.773438 12.808594 15.140625 15.585938 13.730469 16.335938 C 12.316406 17.085938 11.53125 17.078125 10.417969 16.535156 C 9.300781 15.992188 2.242188 13.089844 0.96875 12.46875 C 0.335938 12.160156 0 11.898438 0 11.652344 L 0 9.183594 C 0 9.183594 9.191406 7.144531 10.675781 6.605469 C 12.15625 6.0625 12.671875 6.042969 13.933594 6.511719 C 15.199219 6.984375 22.746094 8.371094 23.996094 8.835938 L 23.996094 11.273438 C 23.996094 11.515625 23.707031 11.785156 23.054688 12.128906 "/>
<path style=" stroke:none;fill-rule:nonzero;fill:rgb(77.647059%,18.823529%,16.862745%);fill-opacity:1;" d="M 23.054688 9.675781 C 21.773438 10.355469 15.140625 13.132812 13.726562 13.882812 C 12.316406 14.632812 11.53125 14.625 10.417969 14.082031 C 9.300781 13.539062 2.242188 10.632812 0.96875 10.015625 C -0.300781 9.394531 -0.328125 8.96875 0.921875 8.472656 C 2.171875 7.972656 9.191406 5.167969 10.675781 4.625 C 12.15625 4.085938 12.671875 4.066406 13.933594 4.535156 C 15.199219 5.007812 21.792969 7.679688 23.039062 8.144531 C 24.285156 8.609375 24.335938 8.996094 23.054688 9.675781 "/>
<path style=" stroke:none;fill-rule:nonzero;fill:rgb(56.862745%,14.901961%,14.901961%);fill-opacity:1;" d="M 23.054688 7.984375 C 21.773438 8.664062 15.140625 11.441406 13.730469 12.191406 C 12.316406 12.941406 11.53125 12.933594 10.417969 12.390625 C 9.300781 11.847656 2.242188 8.945312 0.96875 8.324219 C 0.335938 8.015625 0 7.753906 0 7.507812 L 0 5.039062 C 0 5.039062 9.191406 3 10.675781 2.460938 C 12.15625 1.917969 12.671875 1.898438 13.933594 2.367188 C 15.199219 2.839844 22.746094 4.226562 23.996094 4.691406 L 23.996094 7.128906 C 23.996094 7.371094 23.707031 7.640625 23.054688 7.984375 "/>
<path style=" stroke:none;fill-rule:nonzero;fill:rgb(77.647059%,18.823529%,16.862745%);fill-opacity:1;" d="M 23.054688 5.53125 C 21.773438 6.210938 15.140625 8.988281 13.726562 9.738281 C 12.316406 10.488281 11.53125 10.480469 10.417969 9.9375 C 9.300781 9.394531 2.242188 6.488281 0.96875 5.871094 C -0.300781 5.25 -0.328125 4.824219 0.921875 4.328125 C 2.171875 3.828125 9.191406 1.023438 10.675781 0.480469 C 12.15625 -0.0585938 12.671875 -0.078125 13.933594 0.390625 C 15.199219 0.863281 21.792969 3.535156 23.039062 4 C 24.285156 4.464844 24.335938 4.851562 23.054688 5.53125 "/>
<path style=" stroke:none;fill-rule:nonzero;fill:rgb(100%,100%,100%);fill-opacity:1;" d="M 14.929688 3.125 L 12.867188 3.34375 L 12.40625 4.476562 L 11.660156 3.214844 L 9.277344 2.996094 L 11.054688 2.34375 L 10.519531 1.339844 L 12.183594 2.003906 L 13.753906 1.480469 L 13.328125 2.515625 L 14.929688 3.125 M 12.28125 8.617188 L 8.429688 6.992188 L 13.949219 6.128906 L 12.28125 8.617188 M 6.945312 3.753906 C 8.574219 3.753906 9.890625 4.277344 9.890625 4.917969 C 9.890625 5.5625 8.574219 6.082031 6.945312 6.082031 C 5.316406 6.082031 3.996094 5.5625 3.996094 4.917969 C 3.996094 4.277344 5.316406 3.753906 6.945312 3.753906 "/>
<path style=" stroke:none;fill-rule:nonzero;fill:rgb(38.431373%,10.588235%,10.980392%);fill-opacity:1;" d="M 17.367188 3.4375 L 20.632812 4.75 L 17.371094 6.0625 L 17.367188 3.4375 "/>
<path style=" stroke:none;fill-rule:nonzero;fill:rgb(60.392157%,16.078431%,15.686275%);fill-opacity:1;" d="M 13.753906 4.890625 L 17.367188 3.4375 L 17.371094 6.0625 L 17.015625 6.203125 L 13.753906 4.890625 "/>
</g>
</svg>
