<?xml version="1.0" encoding="UTF-8"?>
<svg xmlns="http://www.w3.org/2000/svg" xmlns:xlink="http://www.w3.org/1999/xlink" width="24px" height="px" viewBox="0 0 24 24" version="1.1">
<g id="surface1">
<path style=" stroke:none;fill-rule:nonzero;fill:rgb(80.392157%,40.392157%,60%);fill-opacity:1;" d="M 19.582031 13.179688 C 18.921875 13.179688 18.273438 13.332031 17.679688 13.621094 C 17.496094 13.3125 17.351562 12.980469 17.253906 12.632812 C 17.199219 12.363281 17.183594 12.085938 17.214844 11.808594 C 17.28125 11.507812 17.363281 11.207031 17.464844 10.914062 C 17.460938 10.878906 17.417969 10.695312 16.996094 10.691406 C 16.574219 10.683594 16.210938 10.769531 16.171875 10.882812 C 16.097656 11.085938 16.039062 11.296875 15.996094 11.507812 C 15.644531 12.371094 15.214844 13.199219 14.710938 13.976562 C 14.425781 13.515625 14.3125 12.96875 14.378906 12.429688 C 14.445312 12.125 14.527344 11.828125 14.628906 11.535156 C 14.625 11.496094 14.582031 11.316406 14.160156 11.308594 C 13.738281 11.304688 13.375 11.390625 13.335938 11.503906 C 13.296875 11.613281 13.246094 11.878906 13.160156 12.128906 C 13.074219 12.378906 12.046875 14.667969 11.78125 15.257812 C 11.640625 15.558594 11.523438 15.800781 11.4375 15.964844 C 11.433594 15.976562 11.429688 15.988281 11.421875 15.996094 C 11.347656 16.140625 11.308594 16.214844 11.308594 16.214844 L 11.308594 16.21875 C 11.25 16.324219 11.1875 16.417969 11.160156 16.417969 C 11.105469 16.207031 11.109375 15.980469 11.164062 15.769531 C 11.316406 14.972656 11.683594 13.738281 11.679688 13.695312 C 11.679688 13.671875 11.75 13.457031 11.441406 13.347656 C 11.296875 13.277344 11.121094 13.308594 11.007812 13.421875 C 10.980469 13.421875 10.960938 13.488281 10.960938 13.488281 C 10.960938 13.488281 11.296875 12.101562 10.324219 12.101562 C 9.5625 12.253906 8.894531 12.707031 8.46875 13.363281 C 8.207031 13.503906 7.652344 13.808594 7.058594 14.132812 C 6.832031 14.257812 6.597656 14.386719 6.378906 14.507812 C 6.363281 14.492188 6.347656 14.472656 6.332031 14.457031 C 5.152344 13.199219 2.980469 12.3125 3.074219 10.628906 C 3.109375 10.015625 3.320312 8.402344 7.246094 6.445312 C 10.472656 4.855469 13.042969 5.296875 13.488281 6.273438 C 14.125 7.671875 12.113281 10.265625 8.773438 10.640625 C 8.027344 10.792969 7.25 10.59375 6.664062 10.105469 C 6.488281 9.914062 6.460938 9.902344 6.398438 9.941406 C 6.289062 10 6.359375 10.171875 6.398438 10.269531 C 6.652344 10.738281 7.089844 11.078125 7.601562 11.21875 C 8.914062 11.503906 10.28125 11.367188 11.515625 10.832031 C 13.539062 10.046875 15.113281 7.875 14.652344 6.050781 C 14.1875 4.203125 11.121094 3.59375 8.214844 4.625 C 6.398438 5.238281 4.714844 6.203125 3.269531 7.464844 C 1.667969 8.960938 1.417969 10.261719 1.519531 10.804688 C 1.894531 12.738281 4.558594 13.996094 5.625 14.929688 C 5.570312 14.960938 5.519531 14.988281 5.480469 15.011719 C 4.945312 15.273438 2.914062 16.339844 2.402344 17.460938 C 1.828125 18.738281 2.496094 19.648438 2.9375 19.769531 C 4.300781 20.097656 5.71875 19.523438 6.46875 18.339844 C 7.101562 17.367188 7.222656 16.148438 6.785156 15.074219 C 6.78125 15.066406 6.777344 15.058594 6.773438 15.050781 L 7.191406 14.804688 C 7.460938 14.644531 7.730469 14.496094 7.960938 14.371094 C 7.804688 14.824219 7.710938 15.292969 7.6875 15.769531 C 7.636719 16.5 7.859375 17.222656 8.3125 17.792969 C 8.453125 17.914062 8.636719 17.972656 8.820312 17.960938 C 9.269531 17.960938 9.476562 17.585938 9.703125 17.140625 C 9.976562 16.59375 10.226562 15.960938 10.226562 15.960938 C 10.226562 15.960938 9.917969 17.671875 10.761719 17.671875 C 11.066406 17.671875 11.378906 17.273438 11.515625 17.070312 L 11.515625 17.074219 C 11.515625 17.074219 11.523438 17.066406 11.539062 17.039062 L 11.589844 16.957031 L 11.589844 16.949219 C 11.710938 16.734375 11.988281 16.246094 12.398438 15.4375 C 12.929688 14.394531 13.4375 13.089844 13.4375 13.089844 C 13.488281 13.378906 13.554688 13.660156 13.640625 13.9375 C 13.765625 14.277344 13.910156 14.601562 14.078125 14.921875 C 13.957031 15.09375 13.878906 15.1875 13.878906 15.1875 L 13.882812 15.191406 C 13.78125 15.324219 13.675781 15.464844 13.554688 15.601562 C 13.203125 15.992188 12.871094 16.40625 12.570312 16.839844 C 12.476562 16.988281 12.519531 17.1875 12.664062 17.289062 C 12.820312 17.371094 13 17.398438 13.175781 17.371094 C 13.441406 17.359375 13.703125 17.296875 13.949219 17.195312 C 14.183594 17.113281 14.410156 16.996094 14.613281 16.847656 C 15.039062 16.554688 15.277344 16.058594 15.25 15.539062 C 15.226562 15.21875 15.144531 14.90625 15.007812 14.617188 C 15.046875 14.5625 15.082031 14.507812 15.117188 14.453125 C 15.542969 13.816406 15.929688 13.152344 16.269531 12.46875 C 16.316406 12.753906 16.386719 13.035156 16.472656 13.316406 C 16.574219 13.605469 16.699219 13.886719 16.847656 14.160156 C 16.355469 14.535156 15.96875 15.03125 15.722656 15.601562 C 15.480469 16.296875 15.667969 16.613281 16.023438 16.683594 C 16.21875 16.699219 16.410156 16.660156 16.585938 16.570312 C 16.839844 16.488281 17.078125 16.363281 17.292969 16.207031 C 17.757812 15.933594 18.050781 15.445312 18.074219 14.910156 C 18.058594 14.644531 18 14.386719 17.898438 14.140625 C 18.546875 13.890625 19.25 13.808594 19.9375 13.90625 C 21.761719 14.121094 22.121094 15.261719 22.054688 15.742188 C 21.988281 16.085938 21.777344 16.386719 21.476562 16.5625 C 21.347656 16.640625 21.304688 16.667969 21.316406 16.726562 C 21.332031 16.8125 21.390625 16.808594 21.5 16.792969 C 22.0625 16.617188 22.460938 16.113281 22.5 15.523438 C 22.558594 14.398438 21.484375 13.167969 19.585938 13.175781 Z M 5.496094 17.925781 C 4.890625 18.585938 4.046875 18.835938 3.683594 18.625 C 3.292969 18.398438 3.445312 17.421875 4.191406 16.722656 C 4.628906 16.328125 5.109375 15.972656 5.613281 15.660156 C 5.703125 15.609375 5.832031 15.53125 5.988281 15.4375 L 6.03125 15.414062 L 6.125 15.355469 C 6.394531 16.261719 6.15625 17.246094 5.496094 17.925781 Z M 9.910156 14.925781 C 9.699219 15.4375 9.257812 16.753906 8.988281 16.679688 C 8.757812 16.621094 8.613281 15.621094 8.941406 14.636719 C 9.109375 14.164062 9.351562 13.71875 9.660156 13.320312 C 9.988281 12.953125 10.355469 12.832031 10.441406 12.980469 C 10.363281 13.652344 10.183594 14.308594 9.910156 14.925781 Z M 13.546875 16.667969 C 13.460938 16.710938 13.375 16.742188 13.335938 16.71875 C 13.308594 16.707031 13.375 16.644531 13.375 16.644531 C 13.375 16.644531 13.832031 16.152344 14.011719 15.933594 C 14.117188 15.800781 14.238281 15.648438 14.371094 15.476562 L 14.371094 15.523438 C 14.371094 16.113281 13.800781 16.507812 13.546875 16.667969 Z M 16.355469 16.027344 C 16.289062 15.980469 16.300781 15.828125 16.519531 15.347656 C 16.671875 15.039062 16.886719 14.765625 17.148438 14.542969 C 17.1875 14.65625 17.207031 14.773438 17.207031 14.894531 C 17.214844 15.421875 16.863281 15.886719 16.355469 16.027344 Z M 16.355469 16.027344 "/>
</g>
</svg>
