<?xml version="1.0" encoding="UTF-8"?>
<svg xmlns="http://www.w3.org/2000/svg" xmlns:xlink="http://www.w3.org/1999/xlink" width="24px" height="px" viewBox="0 0 24 24" version="1.1">
<g id="surface1">
<path style=" stroke:none;fill-rule:evenodd;fill:rgb(43.921569%,67.843137%,31.764706%);fill-opacity:1;" d="M 4.097656 20.996094 C 4.539062 21.347656 5.183594 21.285156 5.539062 20.84375 C 5.894531 20.40625 5.828125 19.757812 5.386719 19.402344 C 4.949219 19.046875 4.304688 19.117188 3.949219 19.554688 C 3.609375 19.972656 3.652344 20.570312 4.035156 20.9375 L 3.835938 20.761719 C 1.480469 18.570312 0 15.449219 0 11.984375 C 0 5.375 5.375 0 11.984375 0 C 15.34375 0 18.382812 1.394531 20.5625 3.628906 C 21.054688 2.953125 21.484375 2.199219 21.835938 1.367188 C 23.363281 5.953125 24.261719 9.8125 23.933594 12.847656 C 23.488281 19.054688 18.300781 23.972656 11.984375 23.972656 C 9.050781 23.972656 6.363281 22.910156 4.277344 21.152344 Z M 21.785156 17.257812 C 24.792969 13.257812 23.117188 6.785156 21.722656 2.648438 C 20.476562 5.238281 17.417969 7.21875 14.773438 7.847656 C 12.296875 8.4375 10.105469 7.953125 7.8125 8.835938 C 2.585938 10.84375 2.667969 17.078125 5.546875 18.480469 C 5.546875 18.480469 5.71875 18.570312 5.71875 18.570312 C 5.71875 18.566406 9.949219 17.726562 12.289062 16.863281 C 15.710938 15.601562 19.464844 12.488281 20.699219 8.871094 C 20.042969 12.632812 16.8125 16.25 13.570312 17.914062 C 11.84375 18.800781 10.5 18.996094 7.660156 19.980469 C 7.3125 20.097656 7.039062 20.214844 7.039062 20.214844 C 7.757812 20.09375 8.476562 20.054688 8.476562 20.054688 C 12.519531 19.867188 18.832031 21.195312 21.785156 17.257812 Z M 21.785156 17.257812 "/>
</g>
</svg>
