<?xml version="1.0" encoding="UTF-8"?>
<svg xmlns="http://www.w3.org/2000/svg" xmlns:xlink="http://www.w3.org/1999/xlink" width="24px" height="px" viewBox="0 0 23 17" version="1.1">
<g id="surface1">
<path style=" stroke:none;fill-rule:nonzero;fill:rgb(81.960784%,64.313725%,10.196078%);fill-opacity:1;" d="M 3.980469 11.148438 C 4.257812 11.5 4.546875 11.839844 4.855469 12.164062 C 3.921875 12.457031 3.3125 12.996094 2.929688 13.476562 C 2.328125 14.230469 2.007812 15.230469 2.082031 16.089844 L 0.476562 16.089844 C 0.800781 15.363281 2.082031 13.265625 3.980469 11.148438 M 22.566406 16.542969 L 20.617188 16.542969 C 16.140625 14.117188 12.210938 12.402344 8.039062 12.027344 C 8.046875 11.425781 8.148438 10.742188 8.347656 9.980469 L 7.964844 9.871094 C 7.761719 10.65625 7.652344 11.363281 7.640625 11.996094 C 7.203125 11.96875 6.765625 11.953125 6.328125 11.953125 C 5.953125 11.953125 5.609375 11.988281 5.300781 12.050781 C 4.894531 11.628906 4.546875 11.226562 4.253906 10.847656 C 6.179688 8.761719 9.351562 6.875 12.109375 6.164062 C 12.886719 8.851562 14.554688 10.691406 16.578125 11.929688 C 16.726562 11.839844 16.875 11.75 17.015625 11.652344 L 20.546875 15.605469 L 20.703125 15.589844 C 21.667969 15.503906 22.214844 16.050781 22.359375 16.21875 C 22.46875 16.339844 22.53125 16.453125 22.566406 16.542969 "/>
<path style=" stroke:none;fill-rule:nonzero;fill:rgb(100%,86.27451%,46.27451%);fill-opacity:1;" d="M 20.84375 3.320312 C 20.914062 6.96875 19.125 9.871094 16.621094 11.363281 C 12.367188 9.160156 11.566406 3.574219 12.289062 0.582031 C 12.492188 1.726562 12.859375 2.445312 13.648438 2.796875 C 15.378906 2.28125 17.753906 2.242188 19.503906 2.742188 C 20.234375 2.191406 20.515625 1.351562 20.671875 0.613281 C 20.863281 1.46875 20.84375 3.320312 20.84375 3.320312 "/>
<path style=" stroke:none;fill-rule:nonzero;fill:rgb(0%,0%,0%);fill-opacity:1;" d="M 15.113281 3.808594 C 15.261719 3.808594 15.363281 3.871094 15.4375 4.003906 C 15.613281 4.316406 15.582031 4.933594 15.4375 5.578125 L 14.261719 5.578125 L 14.261719 5.84375 L 15.371094 5.84375 C 15.253906 6.285156 15.085938 6.722656 14.898438 7.066406 L 14.835938 7.175781 L 16.308594 8.140625 L 15.480469 8.707031 L 15.621094 8.933594 L 16.546875 8.296875 L 17.546875 8.976562 L 17.683594 8.75 L 16.757812 8.152344 C 16.757812 8.152344 18.144531 7.214844 18.214844 7.171875 L 18.210938 7.167969 L 18.214844 7.167969 C 17.910156 6.699219 17.8125 6.300781 17.9375 5.84375 L 19.160156 5.84375 L 19.164062 5.578125 L 18.035156 5.578125 C 18.246094 5.070312 18.535156 4.613281 19.570312 4.613281 L 19.570312 4.34375 C 18.613281 4.34375 18.042969 4.738281 17.769531 5.578125 L 15.703125 5.578125 C 15.847656 4.90625 15.875 4.25 15.660156 3.867188 C 15.539062 3.65625 15.351562 3.539062 15.113281 3.539062 C 14.261719 3.539062 13.921875 4.445312 13.910156 4.484375 L 14.152344 4.578125 C 14.164062 4.546875 14.441406 3.808594 15.113281 3.808594 Z M 16.546875 7.980469 L 15.457031 7.265625 L 17.582031 7.265625 Z M 17.675781 5.84375 C 17.585938 6.148438 17.621094 6.605469 17.847656 7 L 15.222656 7 C 15.382812 6.664062 15.53125 6.261719 15.640625 5.84375 Z M 17.675781 5.84375 "/>
<path style=" stroke:none;fill-rule:nonzero;fill:rgb(0%,0%,0%);fill-opacity:1;" d="M 22.65625 15.933594 C 22.21875 15.425781 21.363281 15.1875 20.648438 15.203125 C 20.195312 14.640625 17.777344 11.988281 17.289062 11.453125 C 18.316406 10.699219 19.1875 9.738281 19.847656 8.625 L 21.179688 8.625 L 21.179688 8.324219 L 20.015625 8.324219 C 20.089844 8.1875 20.160156 8.050781 20.230469 7.910156 L 21.179688 7.910156 L 21.179688 7.609375 L 20.367188 7.609375 C 20.972656 6.253906 21.304688 4.699219 21.273438 2.996094 L 21.277344 2.996094 C 21.273438 2.53125 21.136719 0.5625 20.878906 0.0195312 C 20.183594 0.292969 18.917969 1.183594 18.628906 2.097656 C 17.257812 1.882812 15.710938 1.90625 14.355469 2.152344 C 14.128906 1.171875 12.992188 0.421875 12.132812 0 C 11.769531 0.636719 11.609375 2.105469 11.652344 3.152344 L 11.648438 3.152344 C 11.679688 4.097656 11.804688 4.964844 12.003906 5.757812 C 9.035156 6.523438 5.808594 8.542969 4 10.496094 C 3.15625 9.308594 2.820312 8.335938 2.71875 7.597656 C 2.59375 6.667969 2.808594 5.8125 3.339844 5.125 C 4.167969 4.054688 5.351562 3.976562 6.5625 4.191406 C 6.539062 4.390625 6.566406 4.578125 6.640625 4.699219 C 6.960938 5.191406 8.6875 5.363281 9.714844 4.886719 C 8.957031 3.777344 7.417969 3.238281 6.992188 3.453125 C 6.851562 3.527344 6.742188 3.660156 6.671875 3.8125 C 6.25 3.734375 5.835938 3.675781 5.53125 3.679688 C 4.460938 3.6875 3.640625 4.074219 3.03125 4.867188 C 2.429688 5.644531 2.183594 6.609375 2.328125 7.65625 C 2.460938 8.648438 2.933594 9.703125 3.726562 10.800781 C 3.597656 10.941406 3.46875 11.085938 3.34375 11.234375 C 1.414062 13.480469 0.00390625 15.890625 0.00390625 16.289062 L 0.00390625 16.496094 L 2.550781 16.496094 L 2.503906 16.25 C 2.359375 15.460938 2.648438 14.472656 3.238281 13.734375 C 3.605469 13.269531 4.21875 12.738281 5.179688 12.496094 C 6.03125 13.363281 7.121094 14.28125 8.332031 15.171875 L 10.222656 15.171875 L 10.222656 14.964844 C 10.222656 14.730469 10.113281 14.527344 9.910156 14.390625 C 9.613281 14.1875 9.152344 14.15625 8.726562 14.308594 C 8.324219 13.839844 8.097656 13.214844 8.046875 12.4375 C 12.15625 12.816406 16.082031 14.542969 20.515625 16.949219 L 22.957031 16.949219 L 22.988281 16.785156 C 23.035156 16.546875 22.910156 16.230469 22.65625 15.933594 Z M 12.289062 0.574219 C 12.492188 1.71875 12.859375 2.4375 13.652344 2.789062 C 14.351562 2.582031 15.164062 2.453125 15.992188 2.402344 L 16.683594 3.976562 L 17.125 2.390625 C 17.964844 2.417969 18.789062 2.53125 19.503906 2.738281 C 20.234375 2.183594 20.515625 1.34375 20.671875 0.605469 C 20.863281 1.464844 20.84375 3.3125 20.84375 3.3125 C 20.855469 4.003906 20.804688 4.667969 20.691406 5.300781 L 19.902344 5.648438 L 20.597656 5.757812 C 20.542969 6 20.480469 6.238281 20.40625 6.472656 L 19.734375 6.675781 L 20.269531 6.875 C 20.179688 7.125 20.078125 7.371094 19.96875 7.609375 L 18.859375 7.609375 L 18.859375 7.910156 L 19.820312 7.910156 C 19.75 8.050781 19.671875 8.1875 19.59375 8.324219 L 18.859375 8.324219 L 18.859375 8.625 L 19.414062 8.625 C 18.6875 9.769531 17.722656 10.699219 16.617188 11.355469 C 15.34375 10.695312 14.378906 9.730469 13.671875 8.625 L 14.097656 8.625 L 14.097656 8.324219 L 13.492188 8.324219 C 13.410156 8.1875 13.335938 8.050781 13.261719 7.910156 L 14.097656 7.910156 L 14.097656 7.609375 L 13.113281 7.609375 C 12.945312 7.257812 12.800781 6.894531 12.671875 6.519531 L 13.171875 6.375 L 12.542969 6.113281 C 12.480469 5.898438 12.421875 5.683594 12.371094 5.46875 L 13.339844 5.398438 L 12.230469 4.789062 C 11.960938 3.226562 12.015625 1.714844 12.289062 0.574219 Z M 2.929688 13.46875 C 2.328125 14.226562 2.007812 15.222656 2.082031 16.082031 L 0.476562 16.082031 C 0.800781 15.355469 2.082031 13.257812 3.980469 11.140625 C 4.242188 11.476562 4.535156 11.816406 4.855469 12.15625 C 3.921875 12.449219 3.3125 12.992188 2.929688 13.46875 Z M 20.613281 16.535156 C 16.140625 14.109375 12.210938 12.394531 8.039062 12.023438 C 8.046875 11.417969 8.148438 10.734375 8.347656 9.972656 L 7.964844 9.863281 C 7.761719 10.648438 7.652344 11.355469 7.640625 11.992188 C 7.203125 11.960938 6.765625 11.945312 6.328125 11.945312 C 5.953125 11.945312 5.609375 11.980469 5.300781 12.042969 C 4.894531 11.621094 4.546875 11.222656 4.253906 10.839844 C 4.777344 10.273438 5.390625 9.722656 6.0625 9.207031 L 6.996094 9.875 L 6.691406 8.746094 C 6.976562 8.546875 7.265625 8.355469 7.5625 8.171875 L 8.941406 8.898438 L 8.292969 7.738281 C 8.484375 7.632812 8.671875 7.527344 8.867188 7.429688 L 10.792969 8.773438 L 10.160156 6.824219 C 10.820312 6.546875 11.476562 6.320312 12.109375 6.160156 C 12.253906 6.65625 12.433594 7.144531 12.652344 7.609375 L 11.777344 7.609375 L 11.777344 7.910156 L 12.796875 7.910156 C 12.867188 8.050781 12.941406 8.191406 13.019531 8.324219 L 11.777344 8.324219 L 11.777344 8.625 L 13.199219 8.625 C 14.070312 10.03125 15.246094 11.105469 16.578125 11.921875 C 16.726562 11.832031 16.875 11.742188 17.015625 11.644531 L 17.367188 12.035156 L 16.777344 12.972656 L 17.78125 12.5 L 18.359375 13.148438 L 17.378906 13.921875 L 18.730469 13.5625 L 20.546875 15.597656 L 20.703125 15.585938 C 21.667969 15.5 22.214844 16.042969 22.359375 16.210938 C 22.46875 16.335938 22.53125 16.449219 22.566406 16.535156 Z M 20.613281 16.535156 "/>
</g>
</svg>
