<?xml version="1.0" encoding="UTF-8"?>
<svg xmlns="http://www.w3.org/2000/svg" xmlns:xlink="http://www.w3.org/1999/xlink" width="24px" height="px" viewBox="0 0 24 23" version="1.1">
<g id="surface1">
<path style=" stroke:none;fill-rule:nonzero;fill:rgb(0%,47.843137%,80%);fill-opacity:1;" d="M 0 11.5 L 0 0 L 24 0 L 24 23 L 0 23 "/>
<path style=" stroke:none;fill-rule:nonzero;fill:rgb(100%,100%,100%);fill-opacity:1;" d="M 5.261719 11.539062 L 5.261719 12.476562 L 8.382812 12.476562 L 8.382812 20.988281 L 10.597656 20.988281 L 10.597656 12.476562 L 13.714844 12.476562 L 13.714844 11.558594 C 13.714844 11.039062 13.714844 10.621094 13.691406 10.609375 C 13.691406 10.589844 11.789062 10.585938 9.480469 10.585938 L 5.28125 10.601562 L 5.28125 11.546875 Z M 19.285156 10.578125 C 19.894531 10.71875 20.363281 10.984375 20.785156 11.402344 C 21.007812 11.632812 21.335938 12.035156 21.359375 12.136719 C 21.359375 12.171875 20.320312 12.84375 19.691406 13.21875 C 19.667969 13.238281 19.570312 13.140625 19.476562 12.988281 C 19.164062 12.5625 18.847656 12.378906 18.347656 12.34375 C 17.628906 12.300781 17.148438 12.660156 17.148438 13.265625 C 17.148438 13.449219 17.183594 13.554688 17.257812 13.703125 C 17.417969 14.019531 17.71875 14.207031 18.648438 14.597656 C 20.363281 15.304688 21.109375 15.773438 21.558594 16.4375 C 22.066406 17.1875 22.183594 18.359375 21.839844 19.238281 C 21.457031 20.199219 20.519531 20.847656 19.183594 21.0625 C 18.761719 21.132812 17.800781 21.121094 17.351562 21.046875 C 16.390625 20.871094 15.472656 20.414062 14.910156 19.820312 C 14.6875 19.589844 14.261719 18.976562 14.285156 18.933594 L 14.515625 18.796875 L 15.414062 18.296875 L 16.09375 17.917969 L 16.246094 18.117188 C 16.445312 18.417969 16.890625 18.820312 17.148438 18.957031 C 17.929688 19.34375 18.972656 19.292969 19.488281 18.84375 C 19.710938 18.648438 19.804688 18.441406 19.804688 18.152344 C 19.804688 17.886719 19.765625 17.765625 19.625 17.566406 C 19.433594 17.3125 19.050781 17.105469 17.96875 16.644531 C 16.726562 16.140625 16.199219 15.816406 15.707031 15.324219 C 15.425781 15.023438 15.167969 14.558594 15.046875 14.171875 C 14.957031 13.839844 14.929688 13.023438 15.011719 12.695312 C 15.269531 11.546875 16.175781 10.742188 17.472656 10.511719 C 17.890625 10.429688 18.882812 10.464844 19.296875 10.570312 Z M 19.285156 10.578125 "/>
</g>
</svg>
